<svg width="30.153442" height="27.920593" viewBox="0 0 30.1534 27.9206" fill="none" xmlns="http://www.w3.org/2000/svg" xmlns:xlink="http://www.w3.org/1999/xlink">
	<desc>
			Created with Pixso.
	</desc>
	<defs/>
	<path id="Vector" d="M15.07 2.25C16.84 0.7 19.15 -0.11 21.51 0.01C23.86 0.12 26.08 1.15 27.7 2.87C29.31 4.59 30.19 6.87 30.15 9.23C30.11 11.59 29.15 13.84 27.48 15.51L19.86 23.12L15.07 27.92L4.45 17.3L2.66 15.5C0.99 13.84 0.04 11.59 0 9.23C-0.04 6.87 0.84 4.59 2.45 2.87C4.06 1.15 6.28 0.12 8.64 0.01C10.99 -0.11 13.3 0.7 15.07 2.25Z" fill="#FF4444" fill-opacity="1.000000" fill-rule="nonzero"/>
</svg>
