<svg width="35.000000" height="34.000000" viewBox="0 0 35 34" fill="none" xmlns="http://www.w3.org/2000/svg" xmlns:xlink="http://www.w3.org/1999/xlink">
	<desc>
			Created with Pixso.
	</desc>
	<defs/>
	<path id="Vector" d="M26.42 12.14C26.01 12.14 25.61 12.18 25.22 12.23C25.76 11.11 26.07 9.87 26.07 8.54C26.07 3.83 22.22 0 17.49 0C12.77 0 8.92 3.83 8.92 8.54C8.92 9.86 9.23 11.11 9.77 12.23C9.38 12.18 8.98 12.14 8.57 12.14C3.84 12.14 0 15.97 0 20.68C-0.01 25.4 3.84 29.23 8.57 29.23C11.12 29.23 13.41 28.11 14.98 26.34C14.14 30.41 12.78 32.89 12.76 32.92C12.63 33.15 12.64 33.42 12.77 33.64C12.89 33.86 13.13 34 13.39 34L21.6 34C21.86 34 22.09 33.86 22.22 33.64C22.35 33.42 22.35 33.15 22.23 32.92C22.21 32.89 20.85 30.41 20.01 26.34C21.58 28.11 23.87 29.23 26.42 29.23C31.15 29.23 35 25.4 35 20.69C35 15.97 31.15 12.14 26.42 12.14Z" fill="#141414" fill-opacity="1.000000" fill-rule="nonzero"/>
</svg>
