<svg width="30.625000" height="32.812500" viewBox="0 0 30.625 32.8125" fill="none" xmlns="http://www.w3.org/2000/svg" xmlns:xlink="http://www.w3.org/1999/xlink">
	<desc>
			Created with Pixso.
	</desc>
	<defs/>
	<path id="Vector" d="M13.52 24.6C12.51 25.8 11.16 26.67 9.64 27.08C8.12 27.48 6.52 27.41 5.04 26.88C3.56 26.34 2.28 25.36 1.38 24.08C0.48 22.79 0 21.25 0 19.68C0 16.18 2.49 13.92 5.81 10.92C8.71 8.29 12.25 5.09 15.31 0C18.37 5.09 21.9 8.29 24.8 10.92C28.13 13.92 30.62 16.18 30.62 19.68C30.62 21.25 30.14 22.79 29.23 24.08C28.33 25.36 27.06 26.34 25.58 26.88C24.1 27.41 22.49 27.48 20.98 27.08C19.46 26.67 18.1 25.8 17.09 24.6C18.07 26.81 19.23 28.93 20.55 30.95C21.06 31.72 20.51 32.81 19.6 32.81L11.02 32.81C10.1 32.81 9.55 31.72 10.06 30.95C11.39 28.93 12.55 26.81 13.52 24.6Z" fill="#000000" fill-opacity="1.000000" fill-rule="nonzero"/>
</svg>
