<svg width="542.000000" height="543.000000" viewBox="0 0 542 543" fill="none" xmlns="http://www.w3.org/2000/svg" xmlns:xlink="http://www.w3.org/1999/xlink">
	<desc>
			Created with Pixso.
	</desc>
	<defs>
		<clipPath id="clip90_16553">
			<rect id="фрейм 3" width="542.000000" height="543.000000" fill="white" fill-opacity="0"/>
		</clipPath>
	</defs>
	<rect id="фрейм 3" width="542.000000" height="543.000000" fill="#FFFFFF" fill-opacity="0"/>
	<g clip-path="url(#clip90_16553)">
		<circle id="Ellipse 24" cx="271.000000" cy="289.000000" r="261.000000" fill="#121212" fill-opacity="1.000000"/>
		<path id="Ellipse 26" d="M271 542.81C420.43 542.81 541.81 421.43 541.81 272C541.81 122.56 420.43 1.18 271 1.18C121.56 1.18 0.18 122.56 0.18 272C0.18 421.43 121.56 542.81 271 542.81ZM436.92 132.77C468.57 170.44 487.65 219.01 487.65 272C487.63 321.2 471.02 370.67 436.92 411.23C405.32 448.94 360.79 476.15 308.6 485.31C260.16 493.88 208.55 486.11 162.69 459.57C120.07 435 85.53 395.88 67.46 346.07C50.6 299.85 49.29 247.68 67.46 197.91C84.26 151.67 116.79 110.86 162.7 84.41C205.29 59.78 256.44 49.44 308.61 58.69C357.07 67.2 402.9 92.15 436.92 132.77Z" fill="#212121" fill-opacity="1.000000" fill-rule="evenodd"/>
		<path id="Ellipse 27" d="M208.77 39.77C251.05 28.44 293.74 29.15 333.22 39.77L327 62.99C288.95 52.8 250.53 53.43 214.99 62.99L208.77 39.77Z" fill="#FF0000" fill-opacity="1.000000" fill-rule="evenodd"/>
		<path id="Ellipse 142" d="M208.77 39.77C251.05 28.44 293.74 29.15 333.22 39.77L331.67 45.56C290.45 34.51 248.82 35.2 210.32 45.56L208.77 39.77Z" fill="#A80000" fill-opacity="1.000000" fill-rule="evenodd"/>
		<path id="Ellipse 29" d="M333.22 39.77C391.83 55.48 439.58 91.61 470.85 138.46C504.61 188.88 516.68 247.53 509.3 303.37C501.43 363.54 471.84 415.59 429.47 452.71C383.89 492.76 327.32 512.38 270.99 512.35C210.32 512.41 154.84 489.87 112.51 452.7C66.86 412.74 40.02 359.21 32.69 303.36C24.72 243.21 39.83 185.28 71.15 138.46C104.81 87.97 154.37 54.38 208.77 39.77L214.99 62.99C162.24 77.13 119.27 109.65 91.13 151.82C60.74 197.19 49.88 249.98 56.53 300.24C63.6 354.38 90.23 401.23 128.37 434.64C169.39 470.68 220.3 488.34 271 488.32C325.61 488.37 375.53 468.08 413.63 434.63C454.72 398.67 478.88 350.49 485.47 300.23C492.65 246.09 479.05 193.95 450.86 151.81C420.56 106.38 375.95 76.14 327 62.99L333.22 39.77Z" fill="#434343" fill-opacity="1.000000" fill-rule="evenodd"/>
		<path id="Ellipse 143" d="M333.22 39.77C391.83 55.48 439.58 91.61 470.85 138.46C504.61 188.88 516.68 247.53 509.3 303.37C501.43 363.54 471.84 415.59 429.47 452.71C383.89 492.76 327.32 512.38 270.99 512.35C210.32 512.41 154.84 489.87 112.51 452.7C66.86 412.74 40.02 359.21 32.69 303.36C24.72 243.21 39.83 185.28 71.15 138.46C104.81 87.97 154.37 54.38 208.77 39.77L210.34 45.63C153.21 60.94 106.67 96.17 76.19 141.84C43.28 190.98 31.52 248.15 38.71 302.58C46.37 361.23 75.22 411.97 116.52 448.15C160.95 487.19 216.09 506.31 271 506.28C330.14 506.34 384.21 484.36 425.48 448.14C469.98 409.19 496.14 357.01 503.28 302.57C511.06 243.94 496.32 187.47 465.8 141.83C432.99 92.62 384.67 59.87 331.65 45.63L333.22 39.77Z" fill="#393939" fill-opacity="1.000000" fill-rule="evenodd"/>
		<circle id="Ellipse 25" cx="268.236542" cy="272.000122" r="79.138763" stroke="#262626" stroke-opacity="1.000000" stroke-width="2.000000"/>
	</g>
</svg>
