<svg width="542.000000" height="544.000000" viewBox="0 0 542 544" fill="none" xmlns="http://www.w3.org/2000/svg" xmlns:xlink="http://www.w3.org/1999/xlink">
	<desc>
			Created with Pixso.
	</desc>
	<defs>
		<clipPath id="clip90_16548">
			<rect id="фрейм 1" width="542.000000" height="544.000000" fill="white" fill-opacity="0"/>
		</clipPath>
	</defs>
	<rect id="фрейм 1" width="542.000000" height="544.000000" fill="#FFFFFF" fill-opacity="0"/>
	<g clip-path="url(#clip90_16548)">
		<path id="Ellipse 26" d="M271 543.81C420.43 543.81 541.81 422.43 541.81 273C541.81 123.56 420.43 2.18 271 2.18C121.56 2.18 0.18 123.56 0.18 273C0.18 422.43 121.56 543.81 271 543.81ZM436.92 133.77C468.57 171.44 487.65 220.01 487.65 273C487.63 322.2 471.02 371.67 436.92 412.23C405.32 449.94 360.79 477.15 308.6 486.31C260.16 494.88 208.55 487.11 162.69 460.57C120.07 436 85.53 396.88 67.46 347.07C50.6 300.85 49.29 248.68 67.46 198.91C84.26 152.67 116.79 111.86 162.7 85.41C205.29 60.78 256.44 50.44 308.61 59.69C357.07 68.2 402.9 93.15 436.92 133.77Z" fill="#212121" fill-opacity="1.000000" fill-rule="evenodd"/>
		<path id="Ellipse 27" d="M208.77 40.77C251.05 29.44 293.74 30.15 333.22 40.77L327 63.99C288.95 53.8 250.53 54.43 214.99 63.99L208.77 40.77Z" fill="#00E403" fill-opacity="1.000000" fill-rule="evenodd"/>
		<path id="Ellipse 142" d="M208.77 40.77C251.05 29.44 293.74 30.15 333.22 40.77L331.67 46.56C290.45 35.51 248.82 36.2 210.32 46.56L208.77 40.77Z" fill="#00B602" fill-opacity="1.000000" fill-rule="evenodd"/>
		<path id="Ellipse 28" d="M441 443C410.05 473.94 372.72 494.68 333.22 505.22L327 482C365.05 471.8 398 452.04 424 426L441 443Z" fill="#434343" fill-opacity="1.000000" fill-rule="evenodd"/>
		<path id="Ellipse 144" d="M441 443C410.05 473.94 372.72 494.68 333.22 505.22L331.67 499.45C372.9 488.4 408.61 466.99 436.77 438.77L441 443Z" fill="#393939" fill-opacity="1.000000" fill-rule="evenodd"/>
		<path id="Ellipse 29" d="M101 103C131.94 72.05 169.27 51.31 208.77 40.77L214.99 63.99C176.95 74.19 143.99 93.95 118 120L101 103Z" fill="#434343" fill-opacity="1.000000" fill-rule="evenodd"/>
		<path id="Ellipse 143" d="M101 103C131.94 72.05 169.27 51.31 208.77 40.77L210.34 46.63C169.13 57.68 133.44 79.08 105.29 107.29L101 103Z" fill="#393939" fill-opacity="1.000000" fill-rule="evenodd"/>
		<path id="Ellipse 30" d="M333.22 40.77C390.01 55.99 436.6 90.38 467.88 135.13C501.66 183.26 515.23 239.56 510.44 293.94C505.37 352.52 479.59 404.37 441 443L424 426C461.41 388.58 482.25 340.8 486.5 291.85C491.16 239.14 476.41 189.15 448.2 148.92C417.89 105.54 374.46 76.73 327 63.99L333.22 40.77Z" fill="#D5E8F2" fill-opacity="1.000000" fill-rule="evenodd"/>
		<path id="Ellipse 141" d="M333.22 40.77C390.01 55.99 436.6 90.38 467.88 135.13C501.66 183.26 515.23 239.56 510.44 293.94C505.37 352.52 479.59 404.37 441 443L436.79 438.79C477.33 398.24 499.9 346.47 504.51 293.43C509.56 236.31 493.58 182.14 463.01 138.55C430.17 91.54 383.11 60.32 331.68 46.52L333.22 40.77Z" fill="#B5C6CE" fill-opacity="1.000000" fill-rule="evenodd"/>
		<path id="Ellipse 31" d="M333.22 505.22C280.06 519.46 226.25 514.68 179.01 495.07C128.15 474.05 88.36 437.5 62.83 393.18C35.27 345.54 25.96 292.32 32.68 241.62C39.82 187.05 64.83 139.16 101 103L118 120C82.97 155.02 62.48 199.11 56.51 244.76C50.01 293.86 60.59 341.32 83.65 381.16C108.37 424.08 145.66 455.28 188.21 472.86C233.95 491.85 282.53 493.91 327 482L333.22 505.22Z" fill="#D5E8F2" fill-opacity="1.000000" fill-rule="evenodd"/>
		<path id="Ellipse 140" d="M333.22 505.22C280.06 519.46 226.25 514.68 179.01 495.07C128.15 474.05 88.36 437.5 62.83 393.18C35.27 345.54 25.96 292.32 32.68 241.62C39.82 187.05 64.83 139.16 101 103L105.28 107.28C67.34 145.21 45.15 192.97 38.69 242.41C31.64 295.59 43.1 347 68.07 390.15C94.86 436.63 135.25 470.44 181.33 489.47C230.87 510.04 283.49 512.27 331.65 499.37L333.22 505.22Z" fill="#B5C6CE" fill-opacity="1.000000" fill-rule="evenodd"/>
		<circle id="Ellipse 25" cx="268.236542" cy="273.000061" r="79.138763" stroke="#262626" stroke-opacity="1.000000" stroke-width="2.000000"/>
	</g>
</svg>
