<svg width="541.000000" height="542.000000" viewBox="0 0 541 542" fill="none" xmlns="http://www.w3.org/2000/svg" xmlns:xlink="http://www.w3.org/1999/xlink">
	<desc>
			Created with Pixso.
	</desc>
	<defs>
		<clipPath id="clip90_16550">
			<rect id="фрейм 2" width="541.000000" height="542.000000" fill="white" fill-opacity="0"/>
		</clipPath>
	</defs>
	<rect id="фрейм 2" width="541.000000" height="542.000000" fill="#FFFFFF" fill-opacity="0"/>
	<g clip-path="url(#clip90_16550)">
		<path id="Ellipse 26" d="M269.81 541.62C419.24 541.62 540.62 420.24 540.62 270.81C540.62 121.38 419.24 0 269.81 0C120.38 0 -1 121.38 -1 270.81C-1 420.24 120.38 541.62 269.81 541.62ZM443.36 125.19C476.46 164.59 496.41 215.39 496.41 270.81C496.39 322.27 479.02 374.02 443.35 416.44C410.3 455.88 363.73 484.35 309.14 493.92C258.47 502.89 204.5 494.76 156.53 467C111.95 441.3 75.83 400.39 56.92 348.29C39.29 299.95 37.92 245.38 56.92 193.32C74.49 144.95 108.52 102.27 156.54 74.61C201.09 48.85 254.58 38.03 309.15 47.7C359.84 56.6 407.78 82.7 443.36 125.19Z" fill="#212121" fill-opacity="1.000000" fill-rule="evenodd"/>
		<path id="Ellipse 27" d="M270 25.58C291.51 25.58 312.37 28.41 332.22 33.77L326 56.99C307.29 51.98 288.5 49.59 270 49.62L270 25.58Z" fill="#434343" fill-opacity="1.000000" fill-rule="evenodd"/>
		<path id="Ellipse 166" d="M270 25.58C291.51 25.58 312.37 28.41 332.22 33.77L330.67 39.56C310.4 34.13 290.04 31.54 270 31.57L270 25.58Z" fill="#393939" fill-opacity="1.000000" fill-rule="evenodd"/>
		<path id="Ellipse 143" d="M207.77 33.77C228.55 28.2 249.44 25.54 270 25.58L270 49.62C250.63 49.62 231.86 52.17 213.99 56.99L207.77 33.77Z" fill="#00E403" fill-opacity="1.000000" fill-rule="evenodd"/>
		<path id="Ellipse 169" d="M207.77 33.77C228.55 28.2 249.44 25.54 270 25.58L270 31.56C249.02 31.56 228.67 34.33 209.32 39.55L207.77 33.77Z" fill="#00B602" fill-opacity="1.000000" fill-rule="evenodd"/>
		<path id="Ellipse 144" d="M149.79 57.79C168.42 47.03 187.9 39.06 207.77 33.77L213.99 56.99C195.29 62 177.82 69.33 161.81 78.61L149.79 57.79Z" fill="#434343" fill-opacity="1.000000" fill-rule="evenodd"/>
		<path id="Ellipse 167" d="M149.79 57.79C168.42 47.03 187.9 39.06 207.77 33.77L209.35 39.67C189.1 45.1 170.17 53.03 152.84 63.08L149.79 57.79Z" fill="#393939" fill-opacity="1.000000" fill-rule="evenodd"/>
		<path id="Ellipse 145" d="M100 96C115.21 80.78 131.96 68.04 149.79 57.79L161.81 78.61C145.04 88.29 130.06 99.89 117 113L100 96Z" fill="#FFEA00" fill-opacity="1.000000" fill-rule="evenodd"/>
		<path id="Ellipse 189" d="M100 96C115.21 80.78 131.96 68.04 149.79 57.79L152.84 63.07C134.68 73.56 118.45 86.12 104.31 100.31L100 96Z" fill="#DAC800" fill-opacity="1.000000" fill-rule="evenodd"/>
		<path id="Ellipse 146" d="M61.79 145.79C72.55 127.15 85.43 110.51 100 96L117 113C103.3 126.69 91.83 141.77 82.61 157.81L61.79 145.79Z" fill="#434343" fill-opacity="1.000000" fill-rule="evenodd"/>
		<path id="Ellipse 188" d="M61.79 145.79C72.55 127.15 85.43 110.51 100 96L104.3 100.3C89.47 115.13 77.04 131.46 67.06 148.83L61.79 145.79Z" fill="#393939" fill-opacity="1.000000" fill-rule="evenodd"/>
		<path id="Ellipse 147" d="M37.77 203.77C43.34 182.99 51.48 163.57 61.79 145.79L82.61 157.81C72.93 174.58 65.75 192.11 60.99 209.99L37.77 203.77Z" fill="#00E403" fill-opacity="1.000000" fill-rule="evenodd"/>
		<path id="Ellipse 187" d="M37.77 203.77C43.34 182.99 51.48 163.57 61.79 145.79L66.93 148.76C56.44 166.93 48.66 185.93 43.51 205.31L37.77 203.77Z" fill="#00B602" fill-opacity="1.000000" fill-rule="evenodd"/>
		<path id="Ellipse 148" d="M29.58 266C29.58 244.48 32.41 223.62 37.77 203.77L60.99 209.99C55.98 228.7 53.59 247.49 53.62 266L29.58 266Z" fill="#434343" fill-opacity="1.000000" fill-rule="evenodd"/>
		<path id="Ellipse 186" d="M29.58 266C29.58 244.48 32.41 223.62 37.77 203.77L43.48 205.3C38.05 225.57 35.46 245.94 35.49 266L29.58 266Z" fill="#393939" fill-opacity="1.000000" fill-rule="evenodd"/>
		<path id="Ellipse 149" d="M37.77 328.22C32.2 307.44 29.54 286.55 29.58 266L53.62 266C53.62 285.36 56.17 304.13 60.99 322L37.77 328.22Z" fill="#FF9500" fill-opacity="1.000000" fill-rule="evenodd"/>
		<path id="Ellipse 185" d="M37.77 328.22C32.2 307.44 29.54 286.55 29.58 266L35.62 266C35.62 286.97 38.38 307.31 43.6 326.66L37.77 328.22Z" fill="#D37B00" fill-opacity="1.000000" fill-rule="evenodd"/>
		<path id="Ellipse 150" d="M61.79 386.2C51.03 367.57 43.06 348.09 37.77 328.22L60.99 322C66.01 340.7 73.33 358.18 82.61 374.18L61.79 386.2Z" fill="#434343" fill-opacity="1.000000" fill-rule="evenodd"/>
		<path id="Ellipse 184" d="M61.79 386.2C51.03 367.57 43.06 348.09 37.77 328.22L43.66 326.64C49.09 346.9 57.02 365.82 67.07 383.16L61.79 386.2Z" fill="#393939" fill-opacity="1.000000" fill-rule="evenodd"/>
		<path id="Ellipse 151" d="M100 436C84.78 420.78 72.04 404.03 61.79 386.2L82.61 374.18C92.29 390.95 103.89 405.94 117 419L100 436Z" fill="#D5E8F2" fill-opacity="1.000000" fill-rule="evenodd"/>
		<path id="Ellipse 183" d="M100 436C84.78 420.78 72.04 404.03 61.79 386.2L66.93 383.23C77.43 401.41 89.99 417.64 104.2 431.79L100 436Z" fill="#BDCDD5" fill-opacity="1.000000" fill-rule="evenodd"/>
		<path id="Ellipse 152" d="M149.79 474.2C131.15 463.44 114.51 450.56 100 436L117 419C130.69 432.69 145.77 444.16 161.81 453.38L149.79 474.2Z" fill="#434343" fill-opacity="1.000000" fill-rule="evenodd"/>
		<path id="Ellipse 182" d="M149.79 474.2C131.15 463.44 114.51 450.56 100 436L104.26 431.73C119.09 446.57 135.42 458.99 152.8 468.98L149.79 474.2Z" fill="#393939" fill-opacity="1.000000" fill-rule="evenodd"/>
		<path id="Ellipse 153" d="M207.77 498.22C186.99 492.65 167.57 484.51 149.79 474.2L161.81 453.38C178.58 463.06 196.11 470.24 213.99 475L207.77 498.22Z" fill="#FFEA00" fill-opacity="1.000000" fill-rule="evenodd"/>
		<path id="Ellipse 180" d="M207.77 498.22C186.99 492.65 167.57 484.51 149.79 474.2L152.79 469C170.96 479.49 189.95 487.27 209.33 492.42L207.77 498.22Z" fill="#DAC800" fill-opacity="1.000000" fill-rule="evenodd"/>
		<path id="Ellipse 154" d="M270 506.41C248.48 506.41 227.62 503.58 207.77 498.22L213.99 475C232.7 480.01 251.49 482.4 270 482.37L270 506.41Z" fill="#434343" fill-opacity="1.000000" fill-rule="evenodd"/>
		<path id="Ellipse 181" d="M270 506.41C248.48 506.41 227.62 503.58 207.77 498.22L209.34 492.36C229.6 497.79 249.96 500.38 270 500.35L270 506.41Z" fill="#393939" fill-opacity="1.000000" fill-rule="evenodd"/>
		<path id="Ellipse 155" d="M332.22 498.22C311.44 503.79 290.55 506.45 270 506.41L270 482.37C289.36 482.37 308.13 479.82 326 475L332.22 498.22Z" fill="#FFEA00" fill-opacity="1.000000" fill-rule="evenodd"/>
		<path id="Ellipse 179" d="M332.22 498.22C311.44 503.79 290.55 506.45 270 506.41L270 500.42C290.98 500.42 311.32 497.66 330.67 492.44L332.22 498.22Z" fill="#DAC800" fill-opacity="1.000000" fill-rule="evenodd"/>
		<path id="Ellipse 156" d="M390.2 474.2C371.57 484.96 352.09 492.94 332.22 498.22L326 475C344.7 469.99 362.18 462.66 378.18 453.38L390.2 474.2Z" fill="#434343" fill-opacity="1.000000" fill-rule="evenodd"/>
		<path id="Ellipse 178" d="M390.2 474.2C371.57 484.96 352.09 492.94 332.22 498.22L330.68 492.48C350.95 487.05 369.89 479.11 387.23 469.06L390.2 474.2Z" fill="#393939" fill-opacity="1.000000" fill-rule="evenodd"/>
		<path id="Ellipse 157" d="M440 436C424.78 451.21 408.03 463.96 390.2 474.2L378.18 453.38C394.95 443.7 409.94 432.1 423 419L440 436Z" fill="#00E403" fill-opacity="1.000000" fill-rule="evenodd"/>
		<path id="Ellipse 177" d="M440 436C424.78 451.21 408.03 463.96 390.2 474.2L387.25 469.09C405.43 458.59 421.67 446.03 435.82 431.82L440 436Z" fill="#00B602" fill-opacity="1.000000" fill-rule="evenodd"/>
		<path id="Ellipse 158" d="M478.2 386.2C467.44 404.84 454.56 421.49 440 436L423 419C436.69 405.3 448.16 390.22 457.38 374.18L478.2 386.2Z" fill="#434343" fill-opacity="1.000000" fill-rule="evenodd"/>
		<path id="Ellipse 176" d="M478.2 386.2C467.44 404.84 454.56 421.49 440 436L435.69 431.69C450.52 416.86 462.94 400.53 472.93 383.16L478.2 386.2Z" fill="#393939" fill-opacity="1.000000" fill-rule="evenodd"/>
		<path id="Ellipse 159" d="M502.22 328.22C496.65 349 488.51 368.42 478.2 386.2L457.38 374.18C467.06 357.41 474.24 339.88 479 322L502.22 328.22Z" fill="#4000FF" fill-opacity="1.000000" fill-rule="evenodd"/>
		<path id="Ellipse 175" d="M502.22 328.22C496.65 349 488.51 368.42 478.2 386.2L473.04 383.22C483.53 365.05 491.31 346.05 496.46 326.68L502.22 328.22Z" fill="#3000BE" fill-opacity="1.000000" fill-rule="evenodd"/>
		<path id="Ellipse 160" d="M510.41 266C510.41 287.51 507.58 308.37 502.22 328.22L479 322C484.01 303.29 486.4 284.5 486.37 266L510.41 266Z" fill="#434343" fill-opacity="1.000000" fill-rule="evenodd"/>
		<path id="Ellipse 174" d="M510.41 266C510.41 287.51 507.58 308.37 502.22 328.22L496.42 326.67C501.85 306.4 504.44 286.04 504.4 266L510.41 266Z" fill="#393939" fill-opacity="1.000000" fill-rule="evenodd"/>
		<path id="Ellipse 161" d="M502.22 203.77C507.79 224.55 510.45 245.44 510.41 266L486.37 266C486.37 246.63 483.82 227.86 479 209.99L502.22 203.77Z" fill="#00E403" fill-opacity="1.000000" fill-rule="evenodd"/>
		<path id="Ellipse 173" d="M502.22 203.77C507.79 224.55 510.45 245.44 510.41 266L504.46 266C504.46 245.01 501.69 224.67 496.47 205.31L502.22 203.77Z" fill="#00B602" fill-opacity="1.000000" fill-rule="evenodd"/>
		<path id="Ellipse 162" d="M478.2 145.79C488.96 164.42 496.94 183.9 502.22 203.77L479 209.99C473.99 191.29 466.66 173.82 457.38 157.81L478.2 145.79Z" fill="#434343" fill-opacity="1.000000" fill-rule="evenodd"/>
		<path id="Ellipse 172" d="M478.2 145.79C488.96 164.42 496.94 183.9 502.22 203.77L496.41 205.33C490.98 185.07 483.05 166.14 472.99 148.79L478.2 145.79Z" fill="#393939" fill-opacity="1.000000" fill-rule="evenodd"/>
		<path id="Ellipse 163" d="M440 96C455.21 111.21 467.96 127.96 478.2 145.79L457.38 157.81C447.7 141.04 436.1 126.06 423 113L440 96Z" fill="#FFEA00" fill-opacity="1.000000" fill-rule="evenodd"/>
		<path id="Ellipse 171" d="M440 96C455.21 111.21 467.96 127.96 478.2 145.79L472.93 148.83C462.44 130.67 449.88 114.45 435.69 100.3L440 96Z" fill="#DAC800" fill-opacity="1.000000" fill-rule="evenodd"/>
		<path id="Ellipse 164" d="M390.2 57.79C408.84 68.55 425.49 81.43 440 96L423 113C409.3 99.3 394.22 87.83 378.18 78.61L390.2 57.79Z" fill="#434343" fill-opacity="1.000000" fill-rule="evenodd"/>
		<path id="Ellipse 170" d="M390.2 57.79C408.84 68.55 425.49 81.43 440 96L435.73 100.27C420.89 85.43 404.56 73.01 387.18 63.02L390.2 57.79Z" fill="#393939" fill-opacity="1.000000" fill-rule="evenodd"/>
		<path id="Ellipse 165" d="M332.22 33.77C353 39.34 372.42 47.48 390.2 57.79L378.18 78.61C361.41 68.93 343.88 61.75 326 56.99L332.22 33.77Z" fill="#00E403" fill-opacity="1.000000" fill-rule="evenodd"/>
		<path id="Ellipse 168" d="M332.22 33.77C353 39.34 372.42 47.48 390.2 57.79L387.19 63C369.03 52.51 350.03 44.74 330.66 39.59L332.22 33.77Z" fill="#00B602" fill-opacity="1.000000" fill-rule="evenodd"/>
		<circle id="Ellipse 25" cx="267.236328" cy="266.000092" r="79.138763" stroke="#262626" stroke-opacity="1.000000" stroke-width="2.000000"/>
	</g>
</svg>
