<svg width="22.502441" height="24.000000" viewBox="0 0 22.5024 24" fill="none" xmlns="http://www.w3.org/2000/svg" xmlns:xlink="http://www.w3.org/1999/xlink">
	<desc>
			Created with Pixso.
	</desc>
	<defs/>
	<path id="Vector" d="M13.5 1.5C13.5 0.67 12.83 0 12 0C11.17 0 10.5 0.67 10.5 1.5L10.5 11.25C10.5 11.66 10.16 12 9.75 12C9.33 12 9 11.66 9 11.25L9 3C9 2.17 8.33 1.5 7.5 1.5C6.67 1.5 6 2.17 6 3L6 15.75C6 15.82 6 15.89 6 15.96L3.17 13.26C2.42 12.55 1.23 12.58 0.51 13.33C-0.2 14.08 -0.17 15.26 0.58 15.98L5.85 21C7.87 22.92 10.55 24 13.35 24L14.25 24C18.8 24 22.5 20.3 22.5 15.75L22.5 6C22.5 5.17 21.83 4.5 21 4.5C20.17 4.5 19.5 5.17 19.5 6L19.5 11.25C19.5 11.66 19.16 12 18.75 12C18.33 12 18 11.66 18 11.25L18 3C18 2.17 17.33 1.5 16.5 1.5C15.67 1.5 15 2.17 15 3L15 11.25C15 11.66 14.66 12 14.25 12C13.83 12 13.5 11.66 13.5 11.25L13.5 1.5Z" fill="#5E00FF" fill-opacity="1.000000" fill-rule="nonzero"/>
</svg>
