<svg width="558.000000" height="90.000000" viewBox="0 0 558 90" fill="none" xmlns="http://www.w3.org/2000/svg" xmlns:xlink="http://www.w3.org/1999/xlink">
	<desc>
			Created with Pixso.
	</desc>
	<defs/>
	<path id="Rectangle 193" d="M9.79 41L91 41L91 90L9.79 90C5.7 90 3.34 85.37 5.74 82.06L13.48 71.36C16.02 67.86 16.02 63.13 13.48 59.63L5.74 48.93C3.34 45.62 5.7 41 9.79 41Z" fill="#212121" fill-opacity="1.000000" fill-rule="nonzero"/>
	<path id="Rectangle 194" d="M548.2 41L467 41L467 90L548.2 90C552.28 90 554.65 85.37 552.26 82.06L544.51 71.36C541.97 67.86 541.97 63.13 544.51 59.63L552.26 48.93C554.65 45.62 552.28 41 548.2 41Z" fill="#212121" fill-opacity="1.000000" fill-rule="nonzero"/>
	<rect id="Rectangle 192" x="76.000000" y="4.000000" rx="10.000000" width="406.000000" height="75.000000" fill="#212121" fill-opacity="1.000000"/>
	<rect id="Rectangle 192" x="74.000000" y="2.000000" rx="10.000000" width="410.000000" height="79.000000" stroke="#121212" stroke-opacity="1.000000" stroke-width="4.000000"/>
</svg>
