<svg width="336.000000" height="347.000000" viewBox="0 0 336 347" fill="none" xmlns="http://www.w3.org/2000/svg" xmlns:xlink="http://www.w3.org/1999/xlink">
	<desc>
			Created with Pixso.
	</desc>
	<defs>
		<filter id="filter_384_1273_dd" x="0.000000" y="10.901367" width="335.888916" height="336.098633" filterUnits="userSpaceOnUse" color-interpolation-filters="sRGB">
			<feFlood flood-opacity="0" result="BackgroundImageFix"/>
			<feColorMatrix in="SourceAlpha" type="matrix" values="0 0 0 0 0 0 0 0 0 0 0 0 0 0 0 0 0 0 127 0" result="hardAlpha"/>
			<feOffset dx="0" dy="0"/>
			<feGaussianBlur stdDeviation="5"/>
			<feComposite in2="hardAlpha" operator="out" k2="-1" k3="1"/>
			<feColorMatrix type="matrix" values="0 0 0 0 0 0 0 0 0 0 0 0 0 0 0 0 0 0 0.051 0"/>
			<feBlend mode="normal" in2="BackgroundImageFix" result="effect_dropShadow_1"/>
			<feBlend mode="normal" in="SourceGraphic" in2="effect_dropShadow_1" result="shape"/>
		</filter>
		<filter id="filter_384_1274_dd" x="0.111084" y="0.000000" width="335.888916" height="336.098633" filterUnits="userSpaceOnUse" color-interpolation-filters="sRGB">
			<feFlood flood-opacity="0" result="BackgroundImageFix"/>
			<feColorMatrix in="SourceAlpha" type="matrix" values="0 0 0 0 0 0 0 0 0 0 0 0 0 0 0 0 0 0 127 0" result="hardAlpha"/>
			<feOffset dx="0" dy="0"/>
			<feGaussianBlur stdDeviation="5"/>
			<feComposite in2="hardAlpha" operator="out" k2="-1" k3="1"/>
			<feColorMatrix type="matrix" values="0 0 0 0 0 0 0 0 0 0 0 0 0 0 0 0 0 0 0.051 0"/>
			<feBlend mode="normal" in2="BackgroundImageFix" result="effect_dropShadow_1"/>
			<feBlend mode="normal" in="SourceGraphic" in2="effect_dropShadow_1" result="shape"/>
		</filter>
		<filter id="filter_384_1276_dd" x="95.701416" y="95.656006" width="144.708374" height="144.786865" filterUnits="userSpaceOnUse" color-interpolation-filters="sRGB">
			<feFlood flood-opacity="0" result="BackgroundImageFix"/>
			<feColorMatrix in="SourceAlpha" type="matrix" values="0 0 0 0 0 0 0 0 0 0 0 0 0 0 0 0 0 0 127 0" result="hardAlpha"/>
			<feOffset dx="0" dy="0"/>
			<feGaussianBlur stdDeviation="5"/>
			<feComposite in2="hardAlpha" operator="out" k2="-1" k3="1"/>
			<feColorMatrix type="matrix" values="0 0 0 0 0 0 0 0 0 0 0 0 0 0 0 0 0 0 0.1 0"/>
			<feBlend mode="normal" in2="BackgroundImageFix" result="effect_dropShadow_1"/>
			<feBlend mode="normal" in="SourceGraphic" in2="effect_dropShadow_1" result="shape"/>
		</filter>
		<radialGradient gradientTransform="translate(167.944 178.951) rotate(90) scale(274.669 274.481)" cx="0.000000" cy="0.000000" r="1.000000" id="paint_radial_384_1273_0" gradientUnits="userSpaceOnUse">
			<stop offset="0.357555" stop-color="#C98345"/>
			<stop offset="1.000000" stop-color="#FF3300"/>
		</radialGradient>
		<radialGradient gradientTransform="translate(168.056 168.049) rotate(90) scale(274.669 274.481)" cx="0.000000" cy="0.000000" r="1.000000" id="paint_radial_384_1274_0" gradientUnits="userSpaceOnUse">
			<stop offset="0.357555" stop-color="#F8A257"/>
			<stop offset="1.000000" stop-color="#FF6900"/>
		</radialGradient>
		<radialGradient gradientTransform="translate(168.056 168.049) rotate(90) scale(251.78 251.607)" cx="0.000000" cy="0.000000" r="1.000000" id="paint_radial_384_1275_0" gradientUnits="userSpaceOnUse">
			<stop offset="0.357555" stop-color="#F8A257"/>
			<stop offset="1.000000" stop-color="#FF6900"/>
		</radialGradient>
	</defs>
	<g filter="url(#filter_384_1273_dd)">
		<ellipse id="Ellipse 149" cx="167.944458" cy="178.950684" rx="152.944443" ry="153.049301" fill="url(#paint_radial_384_1273_0)" fill-opacity="1.000000"/>
	</g>
	<g filter="url(#filter_384_1274_dd)">
		<ellipse id="Ellipse 145" cx="168.055542" cy="168.049316" rx="152.944443" ry="153.049301" fill="url(#paint_radial_384_1274_0)" fill-opacity="1.000000"/>
	</g>
	<ellipse id="Ellipse 152" cx="168.055542" cy="168.049316" rx="140.199066" ry="140.295197" fill="url(#paint_radial_384_1275_0)" fill-opacity="1.000000"/>
	<ellipse id="Ellipse 152" cx="168.055542" cy="168.049316" rx="140.699066" ry="140.795197" stroke="#FFAE67" stroke-opacity="1.000000" stroke-width="1.000000"/>
	<g filter="url(#filter_384_1276_dd)">
		<path id="Vector" d="M110.7 187.18L137.04 187.18C137.65 190.9 139.34 194.19 142.09 197.04C144.95 199.78 148.73 201.94 153.42 203.51C158.22 204.98 163.74 205.72 169.97 205.72C179.05 205.72 186.2 204.49 191.41 202.04C196.72 199.49 199.37 195.96 199.37 191.44C199.37 187.91 197.84 185.21 194.78 183.35C191.81 181.39 186.25 179.97 178.08 179.08L154.96 176.58C140.05 175.01 129.23 171.67 122.49 166.57C115.85 161.37 112.53 154.16 112.53 144.94C112.53 137.68 114.73 131.5 119.12 126.4C123.61 121.3 129.89 117.42 137.96 114.77C146.02 112.03 155.52 110.65 166.44 110.65C177.06 110.65 186.51 112.17 194.78 115.21C203.05 118.16 209.63 122.33 214.53 127.72C219.43 133.02 222.09 139.25 222.5 146.41L196.15 146.41C195.64 143.17 194.11 140.38 191.56 138.02C189.11 135.57 185.69 133.71 181.3 132.43C176.91 131.06 171.75 130.37 165.83 130.37C157.56 130.37 150.97 131.55 146.07 133.9C141.17 136.26 138.72 139.59 138.72 143.91C138.72 147.25 140.15 149.85 143.01 151.71C145.97 153.48 151.13 154.8 158.48 155.68L182.52 158.48C193.14 159.56 201.57 161.32 207.79 163.78C214.12 166.13 218.62 169.32 221.27 173.34C224.03 177.37 225.41 182.47 225.41 188.65C225.41 196.01 223.06 202.48 218.36 208.07C213.77 213.57 207.28 217.84 198.91 220.88C190.54 223.92 180.74 225.44 169.51 225.44C158.07 225.44 148.01 223.87 139.34 220.73C130.66 217.49 123.82 213.03 118.81 207.34C113.81 201.55 111.11 194.83 110.7 187.18Z" fill="#FFC38E" fill-opacity="1.000000" fill-rule="nonzero"/>
	</g>
</svg>
