<svg width="37.588928" height="34.218872" viewBox="0 0 37.5889 34.2189" fill="none" xmlns="http://www.w3.org/2000/svg" xmlns:xlink="http://www.w3.org/1999/xlink">
	<desc>
			Created with Pixso.
	</desc>
	<defs/>
	<path id="Vector 21" d="M18.4 34.21L37.58 13.48L31.88 4.14L18.4 0L5.44 4.14L0 13.48L18.4 34.21Z" fill="#99CD09" fill-opacity="1.000000" fill-rule="evenodd"/>
	<mask id="mask389_12178" mask-type="alpha" maskUnits="userSpaceOnUse" x="0.000000" y="0.000000" width="37.588928" height="34.218872">
		<path id="Vector 23" d="M18.4 34.21L37.58 13.48L31.88 4.14L18.4 0L5.44 4.14L0 13.48L18.4 34.21Z" fill="#D0FF00" fill-opacity="1.000000" fill-rule="evenodd"/>
	</mask>
	<g mask="url(#mask389_12178)">
		<path id="Vector 26" d="M29.03 10.62L31.88 4.14L37.58 13.22L29.03 10.88L29.03 10.62Z" fill="#89B70C" fill-opacity="1.000000" fill-rule="evenodd"/>
	</g>
	<g mask="url(#mask389_12178)">
		<path id="Vector 25" d="M26.7 16.59L29.03 10.62L37.58 13.22L37.58 13.48C37.58 13.48 37.53 13.53 37.32 13.73C37.12 13.94 30.15 15.72 26.7 16.59Z" fill="#90C00B" fill-opacity="1.000000" fill-rule="evenodd"/>
	</g>
	<g mask="url(#mask389_12178)">
		<path id="Vector 24" d="M18.4 34.21L26.7 16.59L38.62 13.22L34.73 37.58L18.4 34.21Z" fill="#84B107" fill-opacity="1.000000" fill-rule="evenodd"/>
	</g>
	<g mask="url(#mask389_12178)">
		<path id="Vector 27" d="M8.03 10.62L5.18 4.14L-0.52 13.22L8.03 10.88L8.03 10.62Z" fill="#A8DF10" fill-opacity="1.000000" fill-rule="evenodd"/>
	</g>
	<g mask="url(#mask389_12178)">
		<path id="Vector 28" d="M10.36 16.59L8.03 10.62L-0.52 13.22L-0.52 13.48C-0.52 13.48 -0.47 13.53 -0.26 13.73C-0.06 13.94 6.91 15.72 10.36 16.59Z" fill="#A1D514" fill-opacity="1.000000" fill-rule="evenodd"/>
	</g>
	<g mask="url(#mask389_12178)">
		<path id="Vector 29" d="M18.66 34.21L10.36 16.59L-1.56 13.22L2.33 37.58L18.66 34.21Z" fill="#A8DF10" fill-opacity="1.000000" fill-rule="evenodd"/>
	</g>
	<path id="Vector 28" d="M24.88 16.85L18.66 8.03L12.44 16.85L24.88 16.85Z" fill="#8EBE09" fill-opacity="1.000000" fill-rule="evenodd"/>
	<path id="Vector 30" d="M24.76 16.85L26.79 16.59L31.62 4.92L18.66 8.03L24.76 16.85Z" fill="#96C80C" fill-opacity="1.000000" fill-rule="evenodd"/>
	<path id="Vector 31" d="M12.44 16.85L18.92 27.21L24.88 16.85L12.44 16.85Z" fill="#96C80C" fill-opacity="1.000000" fill-rule="evenodd"/>
</svg>
