<svg width="122.000000" height="62.000000" viewBox="0 0 122 62" fill="none" xmlns="http://www.w3.org/2000/svg" xmlns:xlink="http://www.w3.org/1999/xlink">
	<desc>
			Created with Pixso.
	</desc>
	<defs>
		<filter id="filter_10_53_dd" x="0.000000" y="0.000000" width="122.000000" height="62.000000" filterUnits="userSpaceOnUse" color-interpolation-filters="sRGB">
			<feFlood flood-opacity="0" result="BackgroundImageFix"/>
			<feColorMatrix in="SourceAlpha" type="matrix" values="0 0 0 0 0 0 0 0 0 0 0 0 0 0 0 0 0 0 127 0" result="hardAlpha"/>
			<feOffset dx="0" dy="4"/>
			<feGaussianBlur stdDeviation="1.33333"/>
			<feComposite in2="hardAlpha" operator="out" k2="-1" k3="1"/>
			<feColorMatrix type="matrix" values="0 0 0 0 0 0 0 0 0 0 0 0 0 0 0 0 0 0 0.25 0"/>
			<feBlend mode="normal" in2="BackgroundImageFix" result="effect_dropShadow_1"/>
			<feBlend mode="normal" in="SourceGraphic" in2="effect_dropShadow_1" result="shape"/>
		</filter>
		<clipPath id="clip10_53">
			<rect id="Logo" rx="0.000000" width="113.000000" height="53.000000" transform="translate(4.500000 0.500000)" fill="white" fill-opacity="0"/>
		</clipPath>
	</defs>
	<g filter="url(#filter_10_53_dd)">
		<rect id="Logo" rx="0.000000" width="113.000000" height="53.000000" transform="translate(4.500000 0.500000)" fill="#FFFFFF" fill-opacity="0"/>
		<g clip-path="url(#clip10_53)">
			<path id="Vector" d="M5.68 32.89L13.53 32.89C13.71 33.99 14.21 34.96 15.03 35.8C15.88 36.62 17.01 37.26 18.4 37.72C19.83 38.16 21.48 38.37 23.33 38.37C26.04 38.37 28.16 38.01 29.71 37.29C31.29 36.53 32.08 35.48 32.08 34.15C32.08 33.1 31.63 32.3 30.72 31.75C29.83 31.17 28.18 30.75 25.75 30.49L18.86 29.75C14.42 29.28 11.2 28.3 9.19 26.79C7.22 25.25 6.23 23.11 6.23 20.38C6.23 18.23 6.88 16.4 8.19 14.89C9.53 13.38 11.4 12.24 13.8 11.45C16.2 10.64 19.03 10.23 22.28 10.23C25.44 10.23 28.25 10.68 30.72 11.58C33.18 12.45 35.14 13.69 36.6 15.29C38.06 16.85 38.85 18.7 38.97 20.82L31.13 20.82C30.98 19.86 30.52 19.03 29.76 18.34C29.03 17.61 28.01 17.06 26.7 16.68C25.4 16.27 23.86 16.07 22.1 16.07C19.64 16.07 17.67 16.42 16.22 17.12C14.76 17.81 14.03 18.8 14.03 20.08C14.03 21.07 14.45 21.83 15.3 22.39C16.19 22.91 17.72 23.3 19.91 23.56L27.07 24.39C30.23 24.71 32.74 25.23 34.59 25.96C36.48 26.66 37.81 27.6 38.61 28.79C39.43 29.98 39.84 31.49 39.84 33.32C39.84 35.5 39.14 37.42 37.74 39.07C36.37 40.7 34.44 41.96 31.95 42.86C29.46 43.76 26.54 44.21 23.19 44.21C19.79 44.21 16.79 43.75 14.21 42.82C11.63 41.86 9.59 40.54 8.1 38.85C6.61 37.14 5.8 35.15 5.68 32.89Z" fill="#CD090E" fill-opacity="1.000000" fill-rule="nonzero"/>
			<path id="Vector" d="M53.08 19.05C54.43 19.05 55.6 19.28 56.59 19.73C57.58 20.18 58.33 20.81 58.84 21.62C59.38 22.44 59.64 23.38 59.64 24.46C59.64 25.53 59.38 26.47 58.84 27.29C58.33 28.09 57.58 28.72 56.59 29.18C55.6 29.63 54.43 29.86 53.08 29.86L45.53 29.86L45.53 26.81L52.87 26.81C53.77 26.81 54.47 26.6 54.97 26.18C55.49 25.76 55.74 25.18 55.74 24.46C55.74 23.71 55.49 23.14 54.97 22.73C54.47 22.31 53.77 22.1 52.87 22.1L45.87 22.1L47.63 20.34L47.63 35.39L43.75 35.39L43.75 19.05L53.08 19.05ZM62.65 31.95L62.65 28.94L74.51 28.94L74.51 31.95L62.65 31.95ZM71.16 19.05L79.16 35.39L75.03 35.39L68.03 20.56L69.31 20.56L62.31 35.39L58.18 35.39L66.19 19.05L71.16 19.05ZM83.69 26.31L90.28 26.31C91.15 26.31 91.83 26.12 92.33 25.74C92.85 25.35 93.11 24.81 93.11 24.13C93.11 23.45 92.85 22.92 92.33 22.54C91.83 22.16 91.15 21.97 90.28 21.97L83.12 21.97L84.88 20.08L84.88 35.39L81 35.39L81 19.05L90.74 19.05C91.98 19.05 93.08 19.27 94.02 19.71C94.96 20.13 95.7 20.72 96.23 21.47C96.76 22.23 97.03 23.11 97.03 24.13C97.03 25.13 96.76 26.01 96.23 26.76C95.7 27.52 94.96 28.11 94.02 28.55C93.08 28.97 91.98 29.18 90.74 29.18L83.69 29.18L83.69 26.31ZM86.66 27.74L91.08 27.74L97.53 35.39L92.99 35.39L86.66 27.74ZM99.93 35.39L99.93 19.05L103.78 19.05L103.78 32.38L102.69 31.64L113.27 19.05L117.39 19.05L103.42 35.39L99.93 35.39ZM108.09 27.4L110.87 25.02L117.64 35.39L113.22 35.39L108.09 27.4Z" fill="#FFFFFF" fill-opacity="1.000000" fill-rule="nonzero"/>
			<path id="Vector" d="M22.43 50.81C9.16 50.81 5.24 44.16 4.95 40.84L9.82 43.28C11.5 44.13 13.27 44.8 15.1 45.27L16.65 45.68C20.46 46.67 24.46 46.87 28.29 45.94C29.95 45.54 31.69 45.06 33.09 44.55C36.36 43.37 41.05 40.84 41.05 40.84C41.05 49.11 28.64 50.93 22.43 50.81Z" fill="#CD090E" fill-opacity="1.000000" fill-rule="nonzero"/>
			<path id="Vector" d="M23.56 3.18C36.83 3.18 40.75 9.83 41.05 13.15L36.18 10.71C34.49 9.86 32.72 9.19 30.89 8.72L29.34 8.31C25.53 7.32 21.53 7.12 17.7 8.05C16.04 8.45 14.31 8.93 12.91 9.44C9.63 10.62 4.95 13.15 4.95 13.15C4.95 4.88 17.35 3.06 23.56 3.18Z" fill="#CD090E" fill-opacity="1.000000" fill-rule="nonzero"/>
		</g>
	</g>
</svg>
