<svg width="80.000000" height="119.000000" viewBox="0 0 80 119" fill="none" xmlns="http://www.w3.org/2000/svg" xmlns:xlink="http://www.w3.org/1999/xlink">
	<path d="M20.06 71.98L3.55 71.98Q3.76 76.06 5.25 79.6Q6.5 82.55 8.64 85.13Q13.34 90.7 21.5 93.86Q29.66 96.94 40.41 96.94C47.45 96.94 53.6 95.94 58.84 93.96C64.09 91.98 68.16 89.19 71.04 85.61Q73.01 83.16 74.1 80.37Q75.45 76.92 75.45 72.94C75.45 68.9 74.59 65.58 72.86 62.95Q70.36 59.02 64.41 56.71Q58.56 54.31 48.57 53.26L33.5 51.43C28.89 50.86 25.66 49.99 23.8 48.84C22.01 47.62 21.12 45.93 21.12 43.75Q21.12 42.38 21.6 41.21Q22.61 38.78 25.72 37.22Q30.33 34.92 38.11 34.92C41.82 34.92 45.05 35.37 47.8 36.26C50.56 37.09 52.7 38.31 54.24 39.91C55.84 41.45 56.8 43.27 57.12 45.38L73.63 45.38Q73.42 41.69 72.05 38.5Q70.81 35.64 68.64 33.19Q64.03 27.91 56.25 25.03C51.07 23.05 45.15 22.06 38.49 22.06C31.64 22.06 25.69 22.95 20.64 24.74Q13.05 27.34 8.83 32.33Q7.58 33.84 6.71 35.54Q4.7 39.47 4.7 44.42Q4.7 50.31 7.36 54.52Q8.77 56.77 10.94 58.54Q17.28 63.53 31.29 65.06L45.79 66.69C50.91 67.27 54.4 68.2 56.25 69.48Q57.65 70.36 58.37 71.63Q59.13 72.98 59.13 74.76C59.13 77.7 57.47 80.01 54.14 81.67Q49.24 84.07 40.7 84.07C36.8 84.07 33.34 83.59 30.33 82.63C27.39 81.61 25.02 80.2 23.23 78.41C21.5 76.55 20.44 74.41 20.06 71.98Z" fill="#CD090E" fill-opacity="1.000000" fill-rule="evenodd"/>
	<path d="M2 90C2.62 97.32 10.87 111.98 38.81 111.98C51.87 112.25 78 108.23 78 90C78 90 68.13 95.58 61.24 98.19C58.29 99.31 54.63 100.36 51.13 101.25C43.08 103.3 34.65 102.85 26.64 100.66L23.38 99.77C19.52 98.72 15.79 97.25 12.25 95.39L2 90Z" fill="#CD090E" fill-opacity="1.000000" fill-rule="evenodd"/>
	<path d="M78 29C77.37 21.67 69.12 7.01 41.18 7.01C28.12 6.74 2 10.77 2 29C2 29 11.86 23.41 18.75 20.8C21.7 19.68 25.36 18.63 28.86 17.74C36.91 15.69 45.34 16.14 53.35 18.33L56.61 19.22C60.47 20.27 64.2 21.74 67.74 23.6L78 29Z" fill="#CD090E" fill-opacity="1.000000" fill-rule="evenodd"/>
</svg>
