<svg width="361.000000" height="362.000000" viewBox="0 0 361 362" fill="none" xmlns="http://www.w3.org/2000/svg" xmlns:xlink="http://www.w3.org/1999/xlink">
	<desc>
			Created with Pixso.
	</desc>
	<defs>
		<filter id="filter_488_2785_dd" x="-14.881226" y="-13.881348" width="392.219299" height="392.219299" filterUnits="userSpaceOnUse" color-interpolation-filters="sRGB">
			<feFlood flood-opacity="0" result="BackgroundImageFix"/>
			<feColorMatrix in="SourceAlpha" type="matrix" values="0 0 0 0 0 0 0 0 0 0 0 0 0 0 0 0 0 0 127 0" result="hardAlpha"/>
			<feOffset dx="0" dy="0"/>
			<feGaussianBlur stdDeviation="5"/>
			<feComposite in2="hardAlpha" operator="out" k2="-1" k3="1"/>
			<feColorMatrix type="matrix" values="0 0 0 0 0 0 0 0 0 0 0 0 0 0 0 0 0 0 0.35 0"/>
			<feBlend mode="normal" in2="BackgroundImageFix" result="effect_dropShadow_1"/>
			<feBlend mode="normal" in="SourceGraphic" in2="effect_dropShadow_1" result="shape"/>
		</filter>
		<clipPath id="clip103_16489">
			<rect id="фрейм 2" width="361.000000" height="362.000000" fill="white" fill-opacity="0"/>
		</clipPath>
	</defs>
	<rect id="фрейм 2" width="361.000000" height="362.000000" fill="#FFFFFF" fill-opacity="0"/>
	<g clip-path="url(#clip103_16489)">
		<g filter="url(#filter_488_2785_dd)">
			<circle id="Ellipse 99" r="181.109650" transform="matrix(1 -2.77556e-17 2.77556e-17 1 181.228 182.228)" fill="#121D33" fill-opacity="1.000000"/>
		</g>
		<circle id="Ellipse 47" r="157.944458" transform="matrix(1 -2.77556e-17 2.77556e-17 1 181.432 182.432)" fill="#0E1729" fill-opacity="1.000000"/>
		<path id="Ellipse 66" d="M246.2 38.35C254.8 42.22 262.88 46.77 270.4 51.92L181.33 182.33L246.2 38.35Z" fill="#FE3955" fill-opacity="1.000000" fill-rule="evenodd"/>
		<path id="Ellipse 100" d="M192.5 24.8C201.9 25.47 211.06 26.95 219.9 29.19L181.33 182.33L192.5 24.8Z" fill="#FE3955" fill-opacity="1.000000" fill-rule="evenodd"/>
		<path id="Ellipse 101" d="M163.25 25.44C173.36 24.28 183.37 24.1 193.16 24.85L181.33 182.33L163.25 25.44Z" fill="#62CA5B" fill-opacity="1.000000" fill-rule="evenodd"/>
		<path id="Ellipse 67" d="M270.05 51.69C277.85 56.99 285.03 62.86 291.55 69.24L181.33 182.33L270.05 51.69Z" fill="#475163" fill-opacity="1.000000" fill-rule="evenodd"/>
		<path id="Ellipse 82" d="M219.95 29.2C229.09 31.51 237.85 34.57 246.16 38.33L181.33 182.33L219.95 29.2Z" fill="#475163" fill-opacity="1.000000" fill-rule="evenodd"/>
		<path id="Ellipse 68" d="M291.29 68.98C298.06 75.55 304.11 82.58 309.43 89.98L181.33 182.33L291.29 68.98Z" fill="#FE3955" fill-opacity="1.000000" fill-rule="evenodd"/>
		<path id="Ellipse 69" d="M309.19 89.64C314.72 97.28 319.47 105.24 323.43 113.45L181.33 182.33L309.19 89.64Z" fill="#475163" fill-opacity="1.000000" fill-rule="evenodd"/>
		<path id="Ellipse 70" d="M323.02 112.61C327.19 121.07 330.52 129.72 333.04 138.49L181.33 182.33L323.02 112.61Z" fill="#FE3955" fill-opacity="1.000000" fill-rule="evenodd"/>
		<path id="Ellipse 71" d="M332.92 138.09C335.56 147.14 337.36 156.24 338.32 165.3L181.33 182.33L332.92 138.09Z" fill="#475163" fill-opacity="1.000000" fill-rule="evenodd"/>
		<path id="Ellipse 72" d="M338.29 164.94C339.32 174.31 339.52 183.59 338.91 192.68L181.33 182.33L338.29 164.94Z" fill="#FE3955" fill-opacity="1.000000" fill-rule="evenodd"/>
		<path id="Ellipse 73" d="M338.93 192.27C338.34 201.68 336.93 210.84 334.76 219.7L181.33 182.33L338.93 192.27Z" fill="#475163" fill-opacity="1.000000" fill-rule="evenodd"/>
		<path id="Ellipse 74" d="M334.8 219.54C332.58 228.7 329.6 237.48 325.92 245.82L181.33 182.33L334.8 219.54Z" fill="#FE3955" fill-opacity="1.000000" fill-rule="evenodd"/>
		<path id="Ellipse 75" d="M326.08 245.44C322.32 254.08 317.86 262.22 312.8 269.8L181.33 182.33L326.08 245.44Z" fill="#475163" fill-opacity="1.000000" fill-rule="evenodd"/>
		<path id="Ellipse 76" d="M313 269.5C307.8 277.36 302.01 284.61 295.71 291.2L181.33 182.33L313 269.5Z" fill="#FE3955" fill-opacity="1.000000" fill-rule="evenodd"/>
		<path id="Ellipse 77" d="M296 290.9C289.52 297.75 282.56 303.88 275.23 309.29L181.33 182.33L296 290.9Z" fill="#475163" fill-opacity="1.000000" fill-rule="evenodd"/>
		<path id="Ellipse 78" d="M275.98 308.74C268.43 314.39 260.54 319.26 252.39 323.35L181.33 182.33L275.98 308.74Z" fill="#FE3955" fill-opacity="1.000000" fill-rule="evenodd"/>
		<path id="Ellipse 79" d="M252.76 323.16C244.35 327.43 235.74 330.87 227.01 333.49L181.33 182.33L252.76 323.16Z" fill="#475163" fill-opacity="1.000000" fill-rule="evenodd"/>
		<path id="Ellipse 80" d="M227.35 333.39C218.34 336.14 209.26 338.04 200.21 339.11L181.33 182.33L227.35 333.39Z" fill="#FE3955" fill-opacity="1.000000" fill-rule="evenodd"/>
		<path id="Ellipse 66" d="M91.26 312.04C83.51 306.66 76.4 300.71 69.94 294.27L181.33 182.33L91.26 312.04Z" fill="#FE3955" fill-opacity="1.000000" fill-rule="evenodd"/>
		<path id="Ellipse 100" d="M141.58 335.16C132.46 332.79 123.73 329.66 115.45 325.85L181.33 182.33L141.58 335.16Z" fill="#FE3955" fill-opacity="1.000000" fill-rule="evenodd"/>
		<path id="Ellipse 67" d="M70.24 294.57C63.54 287.93 57.55 280.85 52.31 273.39L181.33 182.33L70.24 294.57Z" fill="#475163" fill-opacity="1.000000" fill-rule="evenodd"/>
		<path id="Ellipse 82" d="M115.39 325.82C106.83 321.89 98.78 317.28 91.3 312.07L181.33 182.33L115.39 325.82Z" fill="#475163" fill-opacity="1.000000" fill-rule="evenodd"/>
		<path id="Ellipse 68" d="M52.52 273.69C47.06 266 42.4 257.98 38.52 249.73L181.33 182.33L52.52 273.69Z" fill="#FE3955" fill-opacity="1.000000" fill-rule="evenodd"/>
		<path id="Ellipse 69" d="M38.69 250.11C34.65 241.59 31.43 232.89 29.03 224.1L181.33 182.33L38.69 250.11Z" fill="#475163" fill-opacity="1.000000" fill-rule="evenodd"/>
		<path id="Ellipse 70" d="M29.28 225C26.73 215.92 25.04 206.8 24.16 197.73L181.33 182.33L29.28 225Z" fill="#FE3955" fill-opacity="1.000000" fill-rule="evenodd"/>
		<path id="Ellipse 71" d="M24.2 198.14C23.26 188.76 23.16 179.49 23.86 170.4L181.33 182.33L24.2 198.14Z" fill="#475163" fill-opacity="1.000000" fill-rule="evenodd"/>
		<path id="Ellipse 72" d="M23.83 170.76C24.52 161.36 26.02 152.2 28.29 143.37L181.33 182.33L23.83 170.76Z" fill="#FE3955" fill-opacity="1.000000" fill-rule="evenodd"/>
		<path id="Ellipse 73" d="M28.18 143.78C30.49 134.63 33.54 125.88 37.3 117.57L181.33 182.33L28.18 143.78Z" fill="#475163" fill-opacity="1.000000" fill-rule="evenodd"/>
		<path id="Ellipse 74" d="M37.23 117.72C41.08 109.12 45.62 101.03 50.76 93.5L181.33 182.33L37.23 117.72Z" fill="#FE3955" fill-opacity="1.000000" fill-rule="evenodd"/>
		<path id="Ellipse 75" d="M50.52 93.84C55.81 86.03 61.67 78.85 68.03 72.31L181.33 182.33L50.52 93.84Z" fill="#475163" fill-opacity="1.000000" fill-rule="evenodd"/>
		<path id="Ellipse 76" d="M67.78 72.57C74.33 65.79 81.35 59.73 88.74 54.39L181.33 182.33L67.78 72.57Z" fill="#FE3955" fill-opacity="1.000000" fill-rule="evenodd"/>
		<path id="Ellipse 77" d="M88.4 54.64C96.03 49.09 103.98 44.33 112.19 40.35L181.33 182.33L88.4 54.64Z" fill="#475163" fill-opacity="1.000000" fill-rule="evenodd"/>
		<path id="Ellipse 78" d="M111.35 40.76C119.8 36.58 128.45 33.23 137.2 30.7L181.33 182.33L111.35 40.76Z" fill="#FE3955" fill-opacity="1.000000" fill-rule="evenodd"/>
		<path id="Ellipse 79" d="M136.8 30.81C145.85 28.15 154.95 26.35 164.01 25.36L181.33 182.33L136.8 30.81Z" fill="#475163" fill-opacity="1.000000" fill-rule="evenodd"/>
		<path id="32" d="M133.73 316.36C133.39 317.28 133.61 318.15 134.3 318.74C133.54 318.77 132.94 319.25 132.67 319.97C132.18 321.29 133 322.65 134.57 323.24C136.04 323.79 137.52 323.48 138.35 321.93L137.07 321.45C136.53 322.25 135.85 322.35 135.05 322.05C134.11 321.7 133.75 321 134.01 320.29C134.27 319.61 134.9 319.48 135.86 319.84L136.7 320.15L137.12 319.03L136.05 318.63C134.95 318.22 134.73 317.61 134.98 316.95C135.26 316.17 136.01 315.88 137.06 316.27C137.97 316.6 138.53 317.22 138.38 318.22L139.67 318.69C140.11 316.95 139.08 315.65 137.5 315.06C135.79 314.42 134.29 314.88 133.73 316.36ZM127.22 312.77L131.11 314.22L131.08 314.22L129.45 314.83C127.32 315.64 126.22 316.04 125.78 317.23C125.28 318.56 125.93 320.03 127.61 320.65C129.24 321.26 130.8 320.67 131.59 319.1L130.31 318.62C129.8 319.46 129.07 319.81 128.11 319.46C127.15 319.1 126.83 318.34 127.08 317.65C127.34 316.96 127.94 316.73 130.27 315.84L133.3 314.69L133.64 313.78L127.67 311.56L127.22 312.77Z" fill="#FFFFFF" fill-opacity="1.000000" fill-rule="evenodd"/>
		<path id="15" d="M110.84 312.18L111.37 312.47L114.2 312.83L114.83 311.66L112.78 311.44L116.05 305.45L114.85 304.8L110.84 312.18ZM106.58 303.51C105.75 305.04 106.4 306.56 107.75 307.3C108.38 307.64 108.94 307.72 109.46 307.63L108.11 309.22L104.88 307.46L104.26 308.6L108.38 310.84L111.6 307.1L110.46 306.48C109.94 306.77 109.28 306.85 108.54 306.45C107.65 305.96 107.31 305.06 107.79 304.18C108.25 303.34 109.22 303.03 110.15 303.54C110.96 303.98 111.42 304.77 111.13 305.71L112.33 306.36C113.03 304.67 112.16 303.17 110.75 302.4C109.19 301.56 107.44 301.94 106.58 303.51Z" fill="#FFFFFF" fill-opacity="1.000000" fill-rule="evenodd"/>
		<path id="19" d="M84.28 290.38C83.11 291.89 83.54 293.7 84.91 294.77C86.33 295.86 88.19 295.78 89.32 294.32C90.43 292.89 89.94 291.29 88.81 290.41C88.39 290.08 87.99 289.94 87.57 289.87L91.27 288.89L90.01 287.91C86.87 288.77 85.25 289.13 84.28 290.38ZM88.7 297.52L89.18 297.9L91.91 298.71L92.72 297.66L90.74 297.1L94.92 291.72L93.85 290.89L88.7 297.52ZM85.34 291.24C86.01 290.39 87.02 290.34 87.86 290.99C88.67 291.62 88.91 292.62 88.24 293.48C87.58 294.33 86.53 294.38 85.71 293.74C84.9 293.12 84.68 292.09 85.34 291.24Z" fill="#FFFFFF" fill-opacity="1.000000" fill-rule="evenodd"/>
		<path id="4" d="M70.9 271.22L69.99 272.1L70.83 272.98L67.09 276.59L68.49 278.04L74.78 277.07L75.71 276.18L72.69 273.07L74.08 271.73L73.13 270.75L71.74 272.09L70.9 271.22ZM71.77 273.95L73.76 276.01L69.02 276.76L68.94 276.69L71.77 273.95Z" fill="#FFFFFF" fill-opacity="1.000000" fill-rule="evenodd"/>
		<path id="21" d="M59.08 252.77L61.28 256.29L61.26 256.28L59.59 255.76C57.41 255.1 56.3 254.75 55.22 255.42C54.02 256.17 53.63 257.73 54.58 259.24C55.5 260.72 57.09 261.21 58.68 260.45L57.96 259.29C57.05 259.64 56.25 259.47 55.71 258.61C55.16 257.73 55.37 256.94 56 256.55C56.63 256.16 57.24 256.34 59.63 257.07L62.73 258.01L63.56 257.49L60.18 252.09L59.08 252.77ZM50.87 253.02L51.19 253.54L53.47 255.25L54.6 254.54L52.93 253.34L58.72 249.73L58 248.58L50.87 253.02Z" fill="#FFFFFF" fill-opacity="1.000000" fill-rule="evenodd"/>
		<path id="2" d="M47.64 228.72L49.37 232.5L49.35 232.48L47.76 231.75C45.68 230.82 44.63 230.32 43.47 230.85C42.18 231.44 41.6 232.93 42.34 234.56C43.06 236.14 44.58 236.83 46.25 236.28L45.69 235.04C44.74 235.27 43.97 235 43.55 234.07C43.12 233.14 43.43 232.37 44.09 232.07C44.77 231.76 45.35 232.02 47.63 233.05L50.58 234.38L51.47 233.98L48.82 228.18L47.64 228.72Z" fill="#FFFFFF" fill-opacity="1.000000" fill-rule="evenodd"/>
		<path id="25" d="M43.12 208.76L43.96 212.83L43.94 212.81L42.56 211.75C40.74 210.37 39.82 209.66 38.58 209.91C37.19 210.2 36.29 211.53 36.65 213.28C37.01 214.98 38.33 216 40.09 215.83L39.81 214.49C38.83 214.51 38.14 214.07 37.93 213.08C37.72 212.06 38.2 211.39 38.91 211.24C39.64 211.09 40.15 211.47 42.14 212.98L44.73 214.93L45.68 214.74L44.38 208.5L43.12 208.76ZM40.12 201.83C38.41 202.19 37.67 203.66 37.98 205.17C38.13 205.87 38.43 206.35 38.84 206.69L36.75 206.69L36 203.09L34.74 203.36L35.69 207.95L40.62 207.98L40.36 206.71C39.8 206.51 39.31 206.04 39.14 205.22C38.94 204.23 39.41 203.39 40.39 203.19C41.33 202.99 42.19 203.53 42.4 204.57C42.59 205.47 42.28 206.33 41.38 206.72L41.66 208.06C43.4 207.5 43.98 205.87 43.66 204.29C43.3 202.56 41.87 201.47 40.12 201.83Z" fill="#FFFFFF" fill-opacity="1.000000" fill-rule="evenodd"/>
		<path id="17" d="M33.68 186.65L33.7 187.26L34.78 189.89L36.11 189.87L35.29 187.98L42.11 187.85L42.08 186.49L33.68 186.65ZM33.55 179.44L33.66 185.3L34.95 185.27L34.88 181.04L42.04 184.47L42.02 182.93L34.55 179.42L33.55 179.44Z" fill="#FFFFFF" fill-opacity="1.000000" fill-rule="evenodd"/>
		<path id="34" d="M41.22 159.83C40.25 159.65 39.44 160.02 38.98 160.8C38.81 160.06 38.23 159.55 37.48 159.41C36.1 159.15 34.89 160.19 34.59 161.84C34.3 163.38 34.86 164.78 36.53 165.33L36.77 163.99C35.9 163.59 35.69 162.94 35.84 162.11C36.03 161.12 36.65 160.64 37.39 160.78C38.11 160.92 38.34 161.52 38.16 162.52L37.99 163.41L39.17 163.63L39.38 162.51C39.6 161.35 40.16 161.03 40.85 161.16C41.67 161.31 42.09 162 41.88 163.09C41.71 164.05 41.19 164.71 40.19 164.73L39.94 166.08C41.73 166.21 42.84 164.98 43.15 163.32C43.48 161.52 42.78 160.12 41.22 159.83ZM43.09 152.28L41.84 152.05L41.61 153.24L36.51 152.29L36.14 154.27L40.58 158.83L41.84 159.07L42.62 154.81L44.52 155.16L44.76 153.82L42.87 153.47L43.09 152.28ZM41.37 154.57L40.85 157.38L37.48 153.96L37.5 153.85L41.37 154.57Z" fill="#FFFFFF" fill-opacity="1.000000" fill-rule="evenodd"/>
		<path id="6" d="M47.81 131.91C46.08 131.36 44.75 132.38 44.32 133.75C44.17 134.26 44.17 134.67 44.25 135.1L42.04 131.97L41.56 133.49C43.46 136.14 44.37 137.53 45.88 138C47.7 138.58 49.25 137.54 49.77 135.88C50.3 134.17 49.57 132.46 47.81 131.91ZM47.4 133.21C48.43 133.53 48.85 134.5 48.53 135.49C48.23 136.46 47.34 137.03 46.31 136.71C45.28 136.38 44.88 135.45 45.2 134.43C45.51 133.46 46.36 132.88 47.4 133.21Z" fill="#FFFFFF" fill-opacity="1.000000" fill-rule="evenodd"/>
		<path id="27" d="M58.11 113.21L56.13 116.86L56.13 116.83L55.76 115.13C55.26 112.9 55.02 111.76 53.9 111.16C52.65 110.48 51.11 110.92 50.26 112.49C49.43 114.02 49.79 115.65 51.24 116.65L51.89 115.45C51.13 114.83 50.88 114.05 51.37 113.16C51.86 112.25 52.66 112.04 53.3 112.39C53.95 112.74 54.09 113.36 54.64 115.8L55.36 118.96L56.22 119.43L59.25 113.82L58.11 113.21ZM55 104.04L52.21 109.18L53.35 109.8L55.37 106.08L59.92 112.59L60.65 111.24L55.88 104.51L55 104.04Z" fill="#FFFFFF" fill-opacity="1.000000" fill-rule="evenodd"/>
		<path id="13" d="M73.29 87.77C72.52 87.16 71.64 87.09 70.86 87.56C71.06 86.83 70.79 86.11 70.2 85.63C69.1 84.75 67.55 85.08 66.5 86.39C65.51 87.62 65.34 89.11 66.55 90.39L67.41 89.33C66.82 88.56 66.94 87.89 67.48 87.23C68.11 86.44 68.88 86.32 69.47 86.8C70.04 87.26 69.96 87.9 69.32 88.69L68.75 89.39L69.69 90.14L70.4 89.26C71.14 88.34 71.79 88.32 72.34 88.76C72.98 89.28 73.03 90.09 72.33 90.96C71.72 91.72 70.95 92.05 70.06 91.6L69.2 92.66C70.72 93.63 72.28 93.07 73.34 91.75C74.48 90.33 74.52 88.77 73.29 87.77ZM63.69 90.12L63.3 90.6L62.45 93.31L63.48 94.15L64.07 92.17L69.38 96.44L70.23 95.38L63.69 90.12Z" fill="#FFFFFF" fill-opacity="1.000000" fill-rule="evenodd"/>
		<path id="36" d="M86.57 74.95C85.92 74.21 85.05 73.99 84.21 74.32C84.53 73.64 84.39 72.88 83.88 72.31C82.96 71.25 81.37 71.32 80.11 72.43C78.93 73.47 78.51 74.92 79.48 76.38L80.51 75.48C80.06 74.62 80.29 73.98 80.93 73.42C81.69 72.75 82.47 72.77 82.97 73.34C83.45 73.89 83.26 74.5 82.5 75.18L81.82 75.77L82.62 76.67L83.47 75.92C84.35 75.14 84.99 75.23 85.46 75.76C86.01 76.38 85.92 77.19 85.08 77.92C84.35 78.57 83.54 78.77 82.74 78.17L81.71 79.07C83.04 80.29 84.67 80 85.94 78.88C87.31 77.67 87.62 76.14 86.57 74.95ZM91.75 69.67C90.56 68.31 88.9 68.49 87.82 69.45C87.42 69.8 87.21 70.16 87.06 70.56L86.79 66.74L85.59 67.79C85.85 71.04 85.9 72.7 86.95 73.89C88.21 75.32 90.07 75.23 91.38 74.08C92.72 72.9 92.98 71.05 91.75 69.67ZM90.73 70.57C91.44 71.38 91.3 72.42 90.52 73.11C89.75 73.78 88.71 73.81 87.99 73C87.28 72.19 87.42 71.19 88.22 70.48C88.98 69.81 90.01 69.75 90.73 70.57Z" fill="#FFFFFF" fill-opacity="1.000000" fill-rule="evenodd"/>
		<path id="11" d="M103.24 55.54L102.72 55.87L101.01 58.14L101.72 59.27L102.93 57.61L106.52 63.39L107.67 62.68L103.24 55.54ZM107.16 53.11L106.64 53.43L104.93 55.71L105.64 56.84L106.85 55.17L110.44 60.96L111.6 60.24L107.16 53.11Z" fill="#FFFFFF" fill-opacity="1.000000" fill-rule="evenodd"/>
		<path id="30" d="M128.43 49.99C128.14 49.05 127.44 48.5 126.53 48.45C127.11 47.96 127.29 47.21 127.07 46.48C126.65 45.14 125.18 44.55 123.57 45.05C122.07 45.51 121.09 46.65 121.38 48.39L122.68 47.98C122.63 47.02 123.1 46.54 123.92 46.28C124.88 45.99 125.59 46.32 125.81 47.04C126.03 47.74 125.6 48.23 124.62 48.53L123.76 48.79L124.12 49.94L125.21 49.6C126.33 49.26 126.88 49.6 127.09 50.28C127.33 51.07 126.92 51.76 125.85 52.09C124.92 52.38 124.1 52.23 123.61 51.35L122.3 51.76C123.01 53.41 124.62 53.82 126.24 53.32C127.98 52.78 128.89 51.5 128.43 49.99ZM135.65 45.87C134.85 43.29 133.13 42.1 131.02 42.75C128.93 43.39 128.16 45.33 128.96 47.93C129.77 50.53 131.49 51.69 133.58 51.05C135.69 50.4 136.44 48.45 135.65 45.87ZM134.34 46.27C134.96 48.29 134.48 49.42 133.2 49.81C131.92 50.21 130.89 49.54 130.27 47.53C129.65 45.51 130.13 44.38 131.4 43.99C132.69 43.59 133.72 44.25 134.34 46.27Z" fill="#FFFFFF" fill-opacity="1.000000" fill-rule="evenodd"/>
		<path id="8" d="M156.67 42.4C156.46 41.46 155.81 40.8 154.85 40.68C155.48 40.22 155.74 39.47 155.57 38.69C155.25 37.32 153.82 36.67 152.23 37.03C150.62 37.4 149.6 38.6 149.91 39.97C150.09 40.75 150.65 41.31 151.42 41.46C150.6 41.98 150.3 42.86 150.51 43.79C150.85 45.29 152.39 45.9 154.14 45.51C155.89 45.11 157.01 43.9 156.67 42.4ZM151.27 39.83C151.11 39.1 151.55 38.5 152.51 38.29C153.46 38.07 154.11 38.41 154.28 39.15C154.42 39.77 154.11 40.32 153.03 40.57C151.92 40.82 151.41 40.45 151.27 39.83ZM155.33 42.58C155.51 43.41 154.92 44.01 153.86 44.25C152.78 44.5 151.99 44.21 151.8 43.38C151.61 42.52 152.14 41.97 153.28 41.71C154.42 41.46 155.13 41.72 155.33 42.58Z" fill="#FFFFFF" fill-opacity="1.000000" fill-rule="evenodd"/>
		<path id="Ellipse 82" d="M168.29 339.71C158.89 338.93 149.75 337.34 140.94 334.99L181.33 182.33L168.29 339.71Z" fill="#475163" fill-opacity="1.000000" fill-rule="evenodd"/>
		<path id="15" d="M159.35 328.43L159.95 328.53L162.73 327.9L162.93 326.59L160.93 327.07L161.95 320.33L160.61 320.13L159.35 328.43ZM152.39 321.73C152.13 323.46 153.26 324.67 154.78 324.9C155.49 325.01 156.04 324.89 156.51 324.63L155.77 326.58L152.14 326.03L151.95 327.31L156.59 328.02L158.33 323.4L157.05 323.21C156.67 323.66 156.06 323.95 155.23 323.83C154.24 323.68 153.61 322.94 153.76 321.95C153.9 321 154.71 320.39 155.75 320.54C156.67 320.68 157.37 321.28 157.41 322.25L158.77 322.46C158.85 320.63 157.53 319.51 155.94 319.27C154.18 319.01 152.66 319.97 152.39 321.73Z" fill="#FFFFFF" fill-opacity="1.000000" fill-rule="evenodd"/>
		<circle id="Ellipse 48" r="131.620392" transform="matrix(1 -2.77556e-17 2.77556e-17 1 181.228 182.228)" fill="#162139" fill-opacity="1.000000"/>
		<g opacity="0.150000">
			<path id="Ellipse 102" d="M246.2 38.35C254.8 42.22 262.88 46.77 270.4 51.92L181.33 182.33L246.2 38.35Z" fill="#FE3955" fill-opacity="1.000000" fill-rule="evenodd"/>
			<path id="Ellipse 103" d="M192.5 24.8C201.9 25.47 211.06 26.95 219.89 29.19L181.33 182.33L192.5 24.8Z" fill="#FE3955" fill-opacity="1.000000" fill-rule="evenodd"/>
			<path id="Ellipse 101" d="M163.25 25.44C173.36 24.28 183.37 24.1 193.16 24.85L181.33 182.33L163.25 25.44Z" fill="#62CA5B" fill-opacity="1.000000" fill-rule="evenodd"/>
			<path id="Ellipse 104" d="M270.05 51.69C277.85 56.99 285.03 62.86 291.55 69.24L181.33 182.33L270.05 51.69Z" fill="#475163" fill-opacity="1.000000" fill-rule="evenodd"/>
			<path id="Ellipse 105" d="M219.95 29.2C229.09 31.51 237.85 34.57 246.15 38.33L181.33 182.33L219.95 29.2Z" fill="#475163" fill-opacity="1.000000" fill-rule="evenodd"/>
			<path id="Ellipse 106" d="M291.29 68.98C298.06 75.55 304.11 82.58 309.43 89.98L181.33 182.33L291.29 68.98Z" fill="#FE3955" fill-opacity="1.000000" fill-rule="evenodd"/>
			<path id="Ellipse 107" d="M309.19 89.64C314.72 97.28 319.47 105.24 323.43 113.45L181.33 182.33L309.19 89.64Z" fill="#475163" fill-opacity="1.000000" fill-rule="evenodd"/>
			<path id="Ellipse 108" d="M323.02 112.61C327.19 121.07 330.52 129.72 333.04 138.49L181.33 182.33L323.02 112.61Z" fill="#FE3955" fill-opacity="1.000000" fill-rule="evenodd"/>
			<path id="Ellipse 109" d="M332.92 138.09C335.56 147.14 337.36 156.24 338.32 165.3L181.33 182.33L332.92 138.09Z" fill="#475163" fill-opacity="1.000000" fill-rule="evenodd"/>
			<path id="Ellipse 110" d="M338.29 164.94C339.32 174.31 339.52 183.59 338.9 192.68L181.33 182.33L338.29 164.94Z" fill="#FE3955" fill-opacity="1.000000" fill-rule="evenodd"/>
			<path id="Ellipse 111" d="M338.93 192.27C338.34 201.68 336.93 210.84 334.76 219.7L181.33 182.33L338.93 192.27Z" fill="#475163" fill-opacity="1.000000" fill-rule="evenodd"/>
			<path id="Ellipse 112" d="M334.8 219.54C332.58 228.7 329.59 237.48 325.92 245.82L181.33 182.33L334.8 219.54Z" fill="#FE3955" fill-opacity="1.000000" fill-rule="evenodd"/>
			<path id="Ellipse 113" d="M326.08 245.44C322.32 254.08 317.86 262.22 312.8 269.8L181.33 182.33L326.08 245.44Z" fill="#475163" fill-opacity="1.000000" fill-rule="evenodd"/>
			<path id="Ellipse 114" d="M313 269.5C307.8 277.36 302.01 284.61 295.71 291.2L181.33 182.33L313 269.5Z" fill="#FE3955" fill-opacity="1.000000" fill-rule="evenodd"/>
			<path id="Ellipse 115" d="M296 290.9C289.52 297.75 282.56 303.88 275.23 309.29L181.33 182.33L296 290.9Z" fill="#475163" fill-opacity="1.000000" fill-rule="evenodd"/>
			<path id="Ellipse 116" d="M275.98 308.74C268.43 314.39 260.54 319.26 252.39 323.35L181.33 182.33L275.98 308.74Z" fill="#FE3955" fill-opacity="1.000000" fill-rule="evenodd"/>
			<path id="Ellipse 117" d="M252.76 323.16C244.35 327.43 235.74 330.87 227.01 333.49L181.33 182.33L252.76 323.16Z" fill="#475163" fill-opacity="1.000000" fill-rule="evenodd"/>
			<path id="Ellipse 80" d="M227.35 333.39C218.34 336.14 209.26 338.04 200.21 339.11L181.33 182.33L227.35 333.39Z" fill="#FE3955" fill-opacity="1.000000" fill-rule="evenodd"/>
			<path id="Ellipse 66" d="M91.26 312.04C83.51 306.66 76.4 300.71 69.94 294.27L181.33 182.33L91.26 312.04Z" fill="#FE3955" fill-opacity="1.000000" fill-rule="evenodd"/>
			<path id="Ellipse 118" d="M141.58 335.16C132.46 332.79 123.73 329.66 115.45 325.85L181.33 182.33L141.58 335.16Z" fill="#FE3955" fill-opacity="1.000000" fill-rule="evenodd"/>
			<path id="Ellipse 67" d="M70.24 294.57C63.54 287.93 57.55 280.85 52.31 273.39L181.33 182.33L70.24 294.57Z" fill="#475163" fill-opacity="1.000000" fill-rule="evenodd"/>
			<path id="Ellipse 119" d="M115.39 325.82C106.83 321.89 98.78 317.28 91.3 312.07L181.33 182.33L115.39 325.82Z" fill="#475163" fill-opacity="1.000000" fill-rule="evenodd"/>
			<path id="Ellipse 68" d="M52.52 273.69C47.06 266 42.39 257.98 38.52 249.73L181.33 182.33L52.52 273.69Z" fill="#FE3955" fill-opacity="1.000000" fill-rule="evenodd"/>
			<path id="Ellipse 69" d="M38.69 250.11C34.65 241.59 31.43 232.89 29.03 224.1L181.33 182.33L38.69 250.11Z" fill="#475163" fill-opacity="1.000000" fill-rule="evenodd"/>
			<path id="Ellipse 70" d="M29.28 225C26.73 215.92 25.04 206.8 24.16 197.73L181.33 182.33L29.28 225Z" fill="#FE3955" fill-opacity="1.000000" fill-rule="evenodd"/>
			<path id="Ellipse 71" d="M24.2 198.14C23.26 188.76 23.16 179.49 23.86 170.4L181.33 182.33L24.2 198.14Z" fill="#475163" fill-opacity="1.000000" fill-rule="evenodd"/>
			<path id="Ellipse 72" d="M23.83 170.76C24.52 161.36 26.02 152.2 28.29 143.37L181.33 182.33L23.83 170.76Z" fill="#FE3955" fill-opacity="1.000000" fill-rule="evenodd"/>
			<path id="Ellipse 73" d="M28.18 143.78C30.49 134.63 33.54 125.88 37.3 117.57L181.33 182.33L28.18 143.78Z" fill="#475163" fill-opacity="1.000000" fill-rule="evenodd"/>
			<path id="Ellipse 74" d="M37.23 117.72C41.08 109.12 45.62 101.03 50.76 93.5L181.33 182.33L37.23 117.72Z" fill="#FE3955" fill-opacity="1.000000" fill-rule="evenodd"/>
			<path id="Ellipse 75" d="M50.52 93.84C55.81 86.03 61.67 78.85 68.03 72.31L181.33 182.33L50.52 93.84Z" fill="#475163" fill-opacity="1.000000" fill-rule="evenodd"/>
			<path id="Ellipse 76" d="M67.78 72.57C74.33 65.79 81.35 59.73 88.74 54.39L181.33 182.33L67.78 72.57Z" fill="#FE3955" fill-opacity="1.000000" fill-rule="evenodd"/>
			<path id="Ellipse 77" d="M88.4 54.64C96.03 49.09 103.98 44.33 112.19 40.35L181.33 182.33L88.4 54.64Z" fill="#475163" fill-opacity="1.000000" fill-rule="evenodd"/>
			<path id="Ellipse 78" d="M111.35 40.76C119.8 36.58 128.45 33.23 137.2 30.7L181.33 182.33L111.35 40.76Z" fill="#FE3955" fill-opacity="1.000000" fill-rule="evenodd"/>
			<path id="Ellipse 79" d="M136.8 30.81C145.85 28.15 154.95 26.35 164.01 25.36L181.33 182.33L136.8 30.81Z" fill="#475163" fill-opacity="1.000000" fill-rule="evenodd"/>
			<path id="Ellipse 82" d="M168.29 339.71C158.89 338.93 149.75 337.34 140.94 334.99L181.33 182.33L168.29 339.71Z" fill="#475163" fill-opacity="1.000000" fill-rule="evenodd"/>
		</g>
		<g opacity="0.100000"/>
		<circle id="Ellipse 100" r="118.458344" transform="matrix(1 -2.77556e-17 2.77556e-17 1 181.228 182.228)" fill="#1E2B49" fill-opacity="1.000000"/>
		<path id="Rectangle 181" d="M237.62 166.97C240.56 166.97 242.94 169.36 242.94 172.29C242.94 175.23 240.56 177.62 237.62 177.62L202.18 177.62C201.63 177.62 201.18 177.17 201.18 176.62L201.18 166.97L237.62 166.97Z" fill="#E0B03F" fill-opacity="1.000000" fill-rule="evenodd"/>
		<path id="Rectangle 182" d="M186.44 228.79C186.44 231.73 184.06 234.11 181.12 234.11C178.18 234.11 175.8 231.73 175.8 228.79L175.8 193.36C175.8 192.8 176.25 192.36 176.8 192.36L186.44 192.36L186.44 228.79Z" fill="#E0B03F" fill-opacity="1.000000" fill-rule="evenodd"/>
		<path id="Rectangle 183" d="M124.62 177.62C121.68 177.62 119.3 175.23 119.3 172.29C119.3 169.36 121.68 166.97 124.62 166.97L160.06 166.97C160.61 166.97 161.06 167.42 161.06 167.97L161.06 177.62L124.62 177.62Z" fill="#E0B03F" fill-opacity="1.000000" fill-rule="evenodd"/>
		<path id="Rectangle 184" d="M174.98 116.62C174.98 113.22 177.73 110.47 181.12 110.47C184.51 110.47 187.26 113.22 187.26 116.62L187.26 151.23C187.26 151.79 186.81 152.23 186.26 152.23L174.98 152.23L174.98 116.62Z" fill="#E0B03F" fill-opacity="1.000000" fill-rule="evenodd"/>
		<circle id="Ellipse 94" r="13.559259" transform="matrix(-4.37114e-08 1 -1 -4.37114e-08 181.229 172.225)" stroke="#F5C249" stroke-opacity="1.000000" stroke-width="15.000000"/>
		<circle id="Ellipse 95" r="8.423704" transform="matrix(-4.37114e-08 1 -1 -4.37114e-08 181.229 226.218)" fill="#F5C249" fill-opacity="1.000000"/>
		<circle id="Ellipse 96" r="8.423704" transform="matrix(-4.37114e-08 1 -1 -4.37114e-08 235.222 172.225)" fill="#F5C249" fill-opacity="1.000000"/>
		<circle id="Ellipse 97" r="8.423704" transform="matrix(-4.37114e-08 1 -1 -4.37114e-08 181.229 118.232)" fill="#F5C249" fill-opacity="1.000000"/>
		<circle id="Ellipse 98" r="8.423704" transform="matrix(-4.37114e-08 1 -1 -4.37114e-08 127.235 172.225)" fill="#F5C249" fill-opacity="1.000000"/>
		<circle id="Ellipse 101" cx="184.000000" cy="328.000000" r="6.000000" fill="#FFFFFF" fill-opacity="1.000000"/>
		<path id="0" d="M181.62 37C181.62 34.3 180.32 32.65 178.11 32.65C175.93 32.65 174.62 34.27 174.62 37C174.62 39.72 175.93 41.34 178.11 41.34C180.32 41.34 181.62 39.7 181.62 37ZM180.25 37C180.25 39.11 179.46 40.04 178.11 40.04C176.78 40.04 175.99 39.11 175.99 37C175.99 34.88 176.78 33.95 178.11 33.95C179.46 33.95 180.25 34.88 180.25 37Z" fill="#FFFFFF" fill-opacity="1.000000" fill-rule="evenodd"/>
		<path id="32" d="M203.65 41.85C203.82 40.88 203.44 40.08 202.66 39.62C203.4 39.45 203.9 38.86 204.03 38.11C204.27 36.72 203.22 35.53 201.57 35.24C200.02 34.97 198.63 35.55 198.09 37.22L199.44 37.46C199.83 36.57 200.47 36.36 201.31 36.5C202.31 36.67 202.78 37.29 202.65 38.04C202.53 38.76 201.93 39 200.92 38.82L200.04 38.67L199.83 39.85L200.95 40.04C202.11 40.25 202.44 40.8 202.32 41.5C202.18 42.32 201.49 42.75 200.39 42.55C199.44 42.39 198.77 41.88 198.74 40.88L197.39 40.64C197.27 42.44 198.52 43.53 200.19 43.82C201.98 44.13 203.38 43.41 203.65 41.85ZM210.71 44.19L206.62 43.48L206.65 43.47L208.14 42.57C210.09 41.39 211.09 40.8 211.31 39.54C211.55 38.15 210.65 36.82 208.89 36.52C207.18 36.22 205.75 37.08 205.26 38.77L206.61 39.01C206.95 38.09 207.6 37.61 208.61 37.78C209.63 37.96 210.08 38.65 209.95 39.37C209.83 40.1 209.28 40.43 207.14 41.73L204.38 43.42L204.21 44.37L210.49 45.47L210.71 44.19Z" fill="#FFFFFF" fill-opacity="1.000000" fill-rule="evenodd"/>
		<path id="15" d="M226.92 41.78L226.34 41.59L223.5 41.75L223.09 43.02L225.14 42.87L223.03 49.35L224.32 49.77L226.92 41.78ZM232.69 49.53C233.23 47.88 232.31 46.49 230.85 46.02C230.17 45.8 229.6 45.83 229.1 46L230.15 44.2L233.64 45.34L234.04 44.1L229.58 42.65L227.1 46.92L228.34 47.32C228.79 46.94 229.43 46.74 230.23 47C231.19 47.31 231.69 48.15 231.38 49.09C231.08 50.01 230.18 50.48 229.18 50.15C228.3 49.87 227.71 49.17 227.82 48.2L226.52 47.77C226.14 49.57 227.26 50.88 228.79 51.38C230.48 51.93 232.13 51.23 232.69 49.53Z" fill="#FFFFFF" fill-opacity="1.000000" fill-rule="evenodd"/>
		<path id="19" d="M257.01 58.37C257.89 56.67 257.13 54.97 255.59 54.17C254 53.35 252.19 53.78 251.34 55.42C250.51 57.03 251.28 58.51 252.56 59.17C253.03 59.41 253.44 59.48 253.88 59.47L250.41 61.11L251.83 61.84C254.76 60.43 256.29 59.77 257.01 58.37ZM251.37 52.15L250.82 51.87L247.99 51.57L247.38 52.75L249.44 52.94L246.31 58.99L247.51 59.61L251.37 52.15ZM255.81 57.72C255.31 58.68 254.33 58.91 253.38 58.42C252.47 57.95 252.05 57.02 252.55 56.05C253.05 55.09 254.07 54.84 254.99 55.32C255.9 55.79 256.31 56.76 255.81 57.72Z" fill="#FFFFFF" fill-opacity="1.000000" fill-rule="evenodd"/>
		<path id="4" d="M273.66 74.76L274.4 73.73L273.41 73.02L276.43 68.79L274.79 67.62L268.78 69.72L268.04 70.77L271.57 73.27L270.45 74.85L271.56 75.63L272.68 74.06L273.66 74.76ZM272.31 72.24L269.98 70.58L274.51 68.97L274.59 69.03L272.31 72.24Z" fill="#FFFFFF" fill-opacity="1.000000" fill-rule="evenodd"/>
		<path id="21" d="M288.65 90.75L285.85 87.68L285.87 87.69L287.6 87.9C289.87 88.15 291.03 88.29 291.97 87.43C293.01 86.48 293.11 84.88 291.9 83.56C290.72 82.28 289.07 82.08 287.65 83.12L288.57 84.13C289.4 83.62 290.21 83.64 290.9 84.39C291.6 85.15 291.54 85.97 291 86.47C290.45 86.97 289.82 86.9 287.33 86.62L284.11 86.26L283.39 86.92L287.7 91.62L288.65 90.75ZM296.68 89L296.27 88.55L293.72 87.29L292.73 88.18L294.6 89.07L289.57 93.67L290.48 94.67L296.68 89Z" fill="#FFFFFF" fill-opacity="1.000000" fill-rule="evenodd"/>
		<path id="2" d="M304.29 112.3L301.91 108.91L301.93 108.92L303.62 109.34C305.83 109.89 306.96 110.18 308 109.45C309.16 108.63 309.47 107.06 308.44 105.6C307.44 104.17 305.82 103.77 304.28 104.62L305.06 105.74C305.95 105.33 306.76 105.46 307.34 106.29C307.94 107.14 307.77 107.94 307.17 108.36C306.56 108.79 305.94 108.64 303.51 108.04L300.37 107.27L299.57 107.83L303.23 113.05L304.29 112.3Z" fill="#FFFFFF" fill-opacity="1.000000" fill-rule="evenodd"/>
		<path id="25" d="M312.39 131.1L310.81 127.26L310.83 127.28L312.39 128.07C314.43 129.08 315.46 129.62 316.64 129.14C317.95 128.6 318.59 127.13 317.92 125.48C317.26 123.87 315.77 123.12 314.07 123.6L314.59 124.87C315.55 124.67 316.31 124.97 316.69 125.91C317.09 126.87 316.74 127.62 316.07 127.9C315.38 128.18 314.81 127.89 312.57 126.77L309.67 125.33L308.77 125.69L311.19 131.59L312.39 131.1ZM316.6 137.37C318.21 136.71 318.67 135.12 318.09 133.7C317.82 133.03 317.43 132.62 316.97 132.35L319.02 131.98L320.41 135.38L321.61 134.89L319.84 130.54L314.98 131.42L315.47 132.62C316.06 132.71 316.62 133.08 316.94 133.86C317.32 134.79 317.01 135.71 316.09 136.09C315.2 136.45 314.25 136.07 313.85 135.09C313.5 134.24 313.65 133.34 314.47 132.79L313.95 131.53C312.33 132.4 312.06 134.1 312.67 135.59C313.34 137.24 314.94 138.04 316.6 137.37Z" fill="#FFFFFF" fill-opacity="1.000000" fill-rule="evenodd"/>
		<path id="17" d="M325.7 151.12L325.57 150.52L324.03 148.13L322.73 148.4L323.87 150.11L317.2 151.48L317.47 152.81L325.7 151.12ZM327.14 158.18L325.97 152.45L324.7 152.71L325.55 156.86L317.87 154.79L318.18 156.29L326.17 158.38L327.14 158.18Z" fill="#FFFFFF" fill-opacity="1.000000" fill-rule="evenodd"/>
		<path id="34" d="M323.18 178.86C324.17 178.86 324.9 178.36 325.21 177.5C325.51 178.2 326.17 178.6 326.94 178.6C328.34 178.6 329.34 177.36 329.34 175.68C329.34 174.11 328.54 172.84 326.79 172.6L326.79 173.96C327.73 174.19 328.06 174.79 328.06 175.64C328.06 176.65 327.53 177.23 326.77 177.23C326.04 177.23 325.7 176.68 325.7 175.66L325.7 174.76L324.5 174.76L324.5 175.9C324.5 177.07 324.01 177.49 323.3 177.49C322.48 177.49 321.94 176.89 321.94 175.78C321.94 174.8 322.32 174.06 323.3 173.86L323.3 172.49C321.51 172.68 320.65 174.1 320.65 175.79C320.65 177.61 321.6 178.86 323.18 178.86ZM322.73 186.63L324 186.63L324 185.41L329.2 185.41L329.2 183.4L324 179.73L322.72 179.73L322.73 184.06L320.79 184.06L320.79 185.41L322.73 185.41L322.73 186.63ZM324 184.06L324 181.2L327.94 183.95L327.94 184.06L324 184.06Z" fill="#FFFFFF" fill-opacity="1.000000" fill-rule="evenodd"/>
		<path id="6" d="M321.8 207.52C323.6 207.74 324.72 206.5 324.89 205.07C324.96 204.54 324.87 204.13 324.72 203.73L327.46 206.41L327.66 204.82C325.31 202.57 324.16 201.36 322.59 201.17C320.69 200.94 319.36 202.25 319.15 203.97C318.94 205.75 319.97 207.3 321.8 207.52ZM321.97 206.16C320.9 206.03 320.31 205.16 320.44 204.13C320.56 203.12 321.32 202.4 322.4 202.53C323.47 202.66 324.03 203.5 323.9 204.56C323.78 205.57 323.05 206.3 321.97 206.16Z" fill="#FFFFFF" fill-opacity="1.000000" fill-rule="evenodd"/>
		<path id="27" d="M315.09 227.79L316.37 223.84L316.37 223.86L317.05 225.47C317.95 227.56 318.39 228.64 319.6 229.03C320.95 229.47 322.39 228.76 322.94 227.06C323.48 225.41 322.83 223.87 321.22 223.15L320.8 224.45C321.66 224.92 322.04 225.63 321.73 226.6C321.41 227.59 320.67 227.94 319.97 227.71C319.26 227.48 319.01 226.9 318.02 224.6L316.74 221.62L315.82 221.33L313.85 227.39L315.09 227.79ZM319.82 236.24L321.62 230.67L320.39 230.27L319.09 234.3L313.43 228.72L312.95 230.18L318.87 235.93L319.82 236.24Z" fill="#FFFFFF" fill-opacity="1.000000" fill-rule="evenodd"/>
		<path id="13" d="M304.81 255.56C305.68 256.03 306.56 255.93 307.24 255.33C307.17 256.09 307.57 256.75 308.24 257.11C309.48 257.78 310.94 257.16 311.74 255.68C312.48 254.3 312.38 252.79 310.96 251.76L310.31 252.96C311.03 253.61 311.03 254.29 310.62 255.04C310.15 255.93 309.41 256.18 308.74 255.83C308.1 255.48 308.06 254.83 308.55 253.94L308.97 253.14L307.92 252.58L307.38 253.58C306.82 254.62 306.19 254.75 305.56 254.42C304.83 254.02 304.64 253.24 305.17 252.26C305.63 251.4 306.32 250.93 307.29 251.21L307.93 250.01C306.27 249.33 304.84 250.17 304.04 251.66C303.17 253.27 303.42 254.81 304.81 255.56ZM313.82 251.5L314.11 250.96L314.46 248.14L313.29 247.51L313.07 249.56L307.07 246.33L306.42 247.52L313.82 251.5Z" fill="#FFFFFF" fill-opacity="1.000000" fill-rule="evenodd"/>
		<path id="36" d="M294.1 270.6C294.87 271.2 295.76 271.26 296.53 270.78C296.34 271.51 296.61 272.23 297.22 272.71C298.32 273.57 299.87 273.21 300.9 271.89C301.87 270.65 302.02 269.16 300.8 267.89L299.96 268.97C300.55 269.73 300.44 270.4 299.91 271.07C299.29 271.86 298.52 271.99 297.93 271.53C297.35 271.07 297.43 270.43 298.06 269.63L298.61 268.92L297.67 268.18L296.96 269.08C296.24 270 295.59 270.03 295.03 269.6C294.38 269.08 294.33 268.28 295.01 267.4C295.61 266.64 296.38 266.29 297.28 266.73L298.12 265.66C296.59 264.7 295.04 265.29 294 266.62C292.87 268.05 292.85 269.62 294.1 270.6ZM289.96 276.74C291.39 277.85 292.99 277.37 293.87 276.24C294.2 275.82 294.34 275.43 294.42 275L295.38 278.71L296.36 277.45C295.52 274.31 295.16 272.69 293.91 271.71C292.41 270.53 290.6 270.96 289.53 272.33C288.42 273.74 288.5 275.6 289.96 276.74ZM290.8 275.66C289.95 274.99 289.9 273.95 290.55 273.13C291.18 272.32 292.2 272.1 293.05 272.77C293.9 273.44 293.95 274.45 293.29 275.29C292.66 276.09 291.66 276.33 290.8 275.66Z" fill="#FFFFFF" fill-opacity="1.000000" fill-rule="evenodd"/>
		<path id="11" d="M281.25 292.72L281.7 292.31L282.96 289.76L282.06 288.77L281.18 290.64L276.59 285.6L275.58 286.51L281.25 292.72ZM277.84 295.83L278.29 295.42L279.55 292.87L278.65 291.89L277.77 293.75L273.17 288.71L272.17 289.63L277.84 295.83Z" fill="#FFFFFF" fill-opacity="1.000000" fill-rule="evenodd"/>
		<path id="30" d="M257.5 302.78C257.95 303.65 258.74 304.06 259.64 303.94C259.16 304.53 259.12 305.3 259.47 305.98C260.13 307.22 261.68 307.53 263.17 306.75C264.56 306.02 265.32 304.72 264.72 303.07L263.51 303.7C263.74 304.64 263.36 305.2 262.61 305.6C261.71 306.07 260.96 305.87 260.61 305.2C260.27 304.55 260.6 304 261.5 303.52L262.3 303.1L261.74 302.04L260.73 302.57C259.69 303.12 259.09 302.88 258.76 302.25C258.38 301.51 258.66 300.76 259.65 300.24C260.51 299.79 261.35 299.78 261.98 300.56L263.2 299.93C262.19 298.43 260.54 298.32 259.04 299.11C257.43 299.96 256.76 301.37 257.5 302.78ZM251.15 308.15C252.4 310.54 254.31 311.4 256.27 310.37C258.2 309.36 258.61 307.31 257.35 304.9C256.08 302.49 254.17 301.66 252.24 302.68C250.28 303.7 249.9 305.76 251.15 308.15ZM252.36 307.51C251.38 305.65 251.65 304.45 252.84 303.82C254.02 303.21 255.15 303.67 256.13 305.54C257.12 307.41 256.85 308.6 255.67 309.22C254.48 309.85 253.34 309.39 252.36 307.51Z" fill="#FFFFFF" fill-opacity="1.000000" fill-rule="evenodd"/>
		<path id="8" d="M231.11 315.4C231.49 316.28 232.25 316.81 233.22 316.75C232.68 317.32 232.56 318.1 232.88 318.84C233.43 320.13 234.96 320.51 236.46 319.86C237.97 319.21 238.76 317.84 238.2 316.55C237.88 315.82 237.23 315.36 236.45 315.36C237.16 314.7 237.3 313.78 236.92 312.9C236.31 311.49 234.69 311.17 233.03 311.88C231.39 312.59 230.5 313.99 231.11 315.4ZM236.89 316.94C237.19 317.63 236.86 318.29 235.96 318.68C235.06 319.07 234.36 318.85 234.06 318.15C233.81 317.57 234.01 316.97 235.03 316.53C236.07 316.09 236.64 316.35 236.89 316.94ZM232.4 314.97C232.07 314.19 232.54 313.49 233.54 313.06C234.55 312.62 235.38 312.76 235.72 313.55C236.07 314.35 235.65 314.99 234.57 315.45C233.5 315.91 232.75 315.79 232.4 314.97Z" fill="#FFFFFF" fill-opacity="1.000000" fill-rule="evenodd"/>
		<path id="23" d="M210.74 320.27L214.82 319.52L214.8 319.53L213.71 320.89C212.3 322.68 211.56 323.59 211.79 324.84C212.05 326.23 213.36 327.16 215.12 326.83C216.83 326.52 217.87 325.21 217.74 323.46L216.39 323.71C216.39 324.68 215.94 325.36 214.94 325.55C213.93 325.74 213.26 325.25 213.13 324.53C212.99 323.8 213.39 323.3 214.94 321.34L216.95 318.79L216.77 317.84L210.51 319L210.74 320.27ZM203.7 322.69C203.88 323.65 204.51 324.28 205.41 324.43C204.78 324.85 204.51 325.58 204.65 326.33C204.9 327.71 206.3 328.47 207.95 328.16C209.5 327.87 210.6 326.85 210.52 325.1L209.18 325.35C209.12 326.31 208.59 326.74 207.75 326.89C206.76 327.07 206.1 326.66 205.96 325.92C205.83 325.2 206.31 324.77 207.31 324.58L208.2 324.42L207.98 323.24L206.86 323.44C205.7 323.66 205.2 323.25 205.07 322.56C204.92 321.74 205.41 321.1 206.51 320.9C207.46 320.72 208.27 320.96 208.65 321.89L209.99 321.64C209.48 319.92 207.93 319.33 206.26 319.64C204.47 319.97 203.42 321.13 203.7 322.69Z" fill="#FFFFFF" fill-opacity="1.000000" fill-rule="evenodd"/>
	</g>
</svg>
