<svg width="143.000000" height="188.000000" viewBox="0 0 143 188" fill="none" xmlns="http://www.w3.org/2000/svg" xmlns:xlink="http://www.w3.org/1999/xlink">
	<desc>
			Created with Pixso.
	</desc>
	<defs>
		<filter id="filter_86_16504_dd" x="-14.999756" y="-14.999878" width="173.000000" height="218.000000" filterUnits="userSpaceOnUse" color-interpolation-filters="sRGB">
			<feFlood flood-opacity="0" result="BackgroundImageFix"/>
			<feColorMatrix in="SourceAlpha" type="matrix" values="0 0 0 0 0 0 0 0 0 0 0 0 0 0 0 0 0 0 127 0" result="hardAlpha"/>
			<feOffset dx="0" dy="0"/>
			<feGaussianBlur stdDeviation="5"/>
			<feComposite in2="hardAlpha" operator="out" k2="-1" k3="1"/>
			<feColorMatrix type="matrix" values="0 0 0 0 0 0 0 0 0 0 0 0 0 0 0 0 0 0 0.35 0"/>
			<feBlend mode="normal" in2="BackgroundImageFix" result="effect_dropShadow_1"/>
			<feBlend mode="normal" in="SourceGraphic" in2="effect_dropShadow_1" result="shape"/>
		</filter>
		<clipPath id="clip86_16501">
			<rect id="фрейм 1" width="143.000000" height="188.000000" fill="white" fill-opacity="0"/>
		</clipPath>
	</defs>
	<rect id="фрейм 1" width="143.000000" height="188.000000" fill="#FFFFFF" fill-opacity="0"/>
	<g clip-path="url(#clip86_16501)">
		<g filter="url(#filter_86_16504_dd)">
			<rect id="Rectangle 198" x="0.000244" y="0.000122" rx="5.000000" width="143.000015" height="188.000015" fill="#D9D9D9" fill-opacity="1.000000"/>
		</g>
		<rect id="Rectangle 195" x="3.000000" y="2.000000" rx="5.000000" width="137.000000" height="184.000000" fill="#B4080B" fill-opacity="1.000000"/>
		<path id="SPARK" d="M41.79 96.3C41.79 93.44 39.93 92.56 36.01 91.72C34.63 91.42 33.99 91.34 33.99 90.68C33.99 90.08 34.45 89.46 35.97 89.46C37.57 89.46 38.03 90.1 38.23 90.92L41.67 90.92C41.43 88.5 39.93 86.28 35.97 86.28C33.31 86.28 30.57 87.76 30.57 90.84C30.57 93.74 32.91 94.58 35.19 95.06C37.53 95.56 38.37 95.62 38.37 96.44C38.37 97.18 37.75 97.62 36.37 97.62C34.59 97.62 33.97 97.08 33.65 95.92L30.21 95.92C30.49 98.3 32.11 100.8 36.39 100.8C38.63 100.8 41.79 99.72 41.79 96.3ZM57.94 91.34C57.94 88.24 55.86 86.54 52.9 86.54L46.9 86.54L46.9 100.54L50.3 100.54L50.3 96.22L52.9 96.22C55.86 96.22 57.94 94.44 57.94 91.34ZM70.09 97.64L71.09 100.54L74.69 100.54L69.61 86.54L65.33 86.54L60.25 100.54L63.85 100.54L64.85 97.64L70.09 97.64ZM84.06 95.68L87.36 100.54L91.52 100.54L87.84 95.36C89.56 94.8 90.64 93.46 90.64 91.22C90.64 88.3 88.8 86.54 85.84 86.54L79.6 86.54L79.6 100.54L83 100.54L83 95.68L84.06 95.68ZM104.51 100.54L108.75 100.54L103.35 93.3L108.39 86.54L104.21 86.54L99.83 92.5L99.83 86.54L96.43 86.54L96.43 100.54L99.83 100.54L99.83 94.2L104.51 100.54ZM54.5 91.38C54.5 92.44 53.92 92.98 52.76 92.98L50.3 92.98L50.3 89.78L52.76 89.78C53.92 89.78 54.5 90.32 54.5 91.38ZM85.46 89.78C86.6 89.78 87.2 90.28 87.2 91.26C87.2 92.22 86.64 92.7 85.46 92.7L83 92.7L83 89.78L85.46 89.78ZM67.47 90.04L68.97 94.4L65.97 94.4L67.47 90.04Z" fill="#FFFFFF" fill-opacity="1.000000" fill-rule="evenodd"/>
		<ellipse id="Ellipse 27" cx="11.004883" cy="177.999023" rx="4.004881" ry="3.999035" fill="#D9D9D9" fill-opacity="1.000000"/>
		<ellipse id="Ellipse 31" cx="132.004883" cy="177.999023" rx="4.004881" ry="3.999035" fill="#D9D9D9" fill-opacity="1.000000"/>
		<ellipse id="Ellipse 32" rx="4.004881" ry="3.999035" transform="matrix(1 1.2326e-32 0 1 11.0046 9.99902)" fill="#D9D9D9" fill-opacity="1.000000"/>
		<ellipse id="Ellipse 33" rx="4.004881" ry="3.999035" transform="matrix(1 1.2326e-32 0 1 132.005 9.99902)" fill="#D9D9D9" fill-opacity="1.000000"/>
		<ellipse id="Ellipse 34" rx="4.004881" ry="3.999035" transform="matrix(1 1.2326e-32 0 1 11.0046 19.999)" fill="#D9D9D9" fill-opacity="0.250000"/>
		<ellipse id="Ellipse 35" rx="4.004881" ry="3.999035" transform="matrix(1 1.2326e-32 0 1 132.005 19.999)" fill="#D9D9D9" fill-opacity="0.250000"/>
		<ellipse id="Ellipse 36" rx="4.004881" ry="3.999035" transform="matrix(1 2.46519e-32 0 1 11.0046 29.999)" fill="#D9D9D9" fill-opacity="0.250000"/>
		<ellipse id="Ellipse 37" rx="4.004881" ry="3.999035" transform="matrix(1 2.46519e-32 0 1 132.005 29.999)" fill="#D9D9D9" fill-opacity="0.250000"/>
		<ellipse id="Ellipse 34" rx="4.004881" ry="3.999035" transform="matrix(1 1.2326e-32 0 1 11.0046 155.999)" fill="#D9D9D9" fill-opacity="0.250000"/>
		<ellipse id="Ellipse 35" rx="4.004881" ry="3.999035" transform="matrix(1 1.2326e-32 0 1 132.005 155.999)" fill="#D9D9D9" fill-opacity="0.250000"/>
		<ellipse id="Ellipse 36" rx="4.004881" ry="3.999035" transform="matrix(1 2.46519e-32 0 1 11.0046 165.999)" fill="#D9D9D9" fill-opacity="0.250000"/>
		<ellipse id="Ellipse 37" rx="4.004881" ry="3.999035" transform="matrix(1 2.46519e-32 0 1 132.005 165.999)" fill="#D9D9D9" fill-opacity="0.250000"/>
		<ellipse id="Ellipse 34" rx="4.004881" ry="3.999035" transform="matrix(1 1.2326e-32 0 1 11.0046 87.999)" fill="#D9D9D9" fill-opacity="0.250000"/>
		<ellipse id="Ellipse 35" rx="4.004881" ry="3.999035" transform="matrix(1 1.2326e-32 0 1 132.005 87.999)" fill="#D9D9D9" fill-opacity="0.250000"/>
		<ellipse id="Ellipse 36" rx="4.004881" ry="3.999035" transform="matrix(1 2.46519e-32 0 1 11.0046 97.999)" fill="#D9D9D9" fill-opacity="0.250000"/>
		<ellipse id="Ellipse 37" rx="4.004881" ry="3.999035" transform="matrix(1 2.46519e-32 0 1 132.005 97.999)" fill="#D9D9D9" fill-opacity="0.250000"/>
	</g>
</svg>
