<svg width="28.000000" height="28.000000" viewBox="0 0 28 28" fill="none" xmlns="http://www.w3.org/2000/svg" xmlns:xlink="http://www.w3.org/1999/xlink">
	<defs>
		<clipPath id="clip195_5203">
			<rect id="carbon:password" rx="0.000000" width="27.000000" height="27.000000" transform="translate(0.500000 0.500000)" fill="white" fill-opacity="0"/>
		</clipPath>
	</defs>
	<rect id="carbon:password" rx="0.000000" width="27.000000" height="27.000000" transform="translate(0.500000 0.500000)" fill="#FFFFFF" fill-opacity="0"/>
	<g clip-path="url(#clip195_5203)">
		<path id="Vector" d="M18.37 1.75C17.14 1.74 15.93 2.03 14.83 2.59C13.73 3.14 12.78 3.94 12.04 4.93C11.31 5.92 10.82 7.06 10.61 8.27C10.4 9.48 10.48 10.73 10.83 11.91L1.75 21L1.75 26.25L7 26.25L16.08 17.16C17.17 17.48 18.31 17.58 19.43 17.42C20.55 17.27 21.63 16.88 22.58 16.27C23.54 15.67 24.36 14.86 24.97 13.91C25.59 12.97 26 11.89 26.16 10.78C26.33 9.66 26.25 8.51 25.94 7.43C25.62 6.34 25.07 5.33 24.33 4.48C23.59 3.62 22.68 2.93 21.65 2.46C20.62 1.99 19.5 1.74 18.37 1.75ZM18.37 15.75C17.77 15.74 17.17 15.66 16.59 15.48L15.59 15.18L14.85 15.92L12.06 18.7L10.86 17.5L9.62 18.73L10.83 19.94L9.44 21.33L8.23 20.12L7 21.36L8.2 22.56L6.27 24.5L3.5 24.5L3.5 21.72L12.07 13.14L12.81 12.4L12.51 11.4C12.14 10.17 12.16 8.85 12.58 7.63C13 6.41 13.79 5.35 14.84 4.61C15.9 3.87 17.16 3.48 18.45 3.5C19.73 3.51 20.98 3.93 22.02 4.7C23.05 5.47 23.82 6.54 24.21 7.77C24.6 9 24.59 10.32 24.19 11.54C23.78 12.77 23 13.83 21.96 14.58C20.91 15.34 19.66 15.75 18.37 15.75Z" fill="#676767" fill-opacity="1.000000" fill-rule="nonzero"/>
		<path id="Vector" d="M21 8.75C21 9.71 20.21 10.5 19.25 10.5C18.28 10.5 17.5 9.71 17.5 8.75C17.5 7.78 18.28 7 19.25 7C20.21 7 21 7.78 21 8.75Z" fill="#676767" fill-opacity="1.000000" fill-rule="evenodd"/>
	</g>
</svg>
