<svg width="24.000000" height="24.000000" viewBox="0 0 24 24" fill="none" xmlns="http://www.w3.org/2000/svg" xmlns:xlink="http://www.w3.org/1999/xlink">
	<desc>
			Created with Pixso.
	</desc>
	<defs/>
	<circle id="Ellipse 33" cx="12.000000" cy="12.000000" r="12.000000" fill="#00FF37" fill-opacity="1.000000"/>
	<path id="$" d="M12.84 18.48C14.87 18.28 16.85 17.14 16.85 14.68C16.85 12.25 15.1 11.58 11.92 10.88C9.83 10.43 9.11 10.14 9.11 9.24C9.11 8.11 10.03 7.39 11.72 7.39C13.41 7.39 14.28 8.07 14.64 9.12L16.69 9.12C16.38 7.39 15.23 5.93 12.89 5.57L12.89 3.46L10.86 3.46L10.86 5.53C8.79 5.8 7.08 7.06 7.08 9.3C7.08 11.65 8.98 12.34 11.43 12.88C13.77 13.4 14.8 13.6 14.8 14.77C14.8 15.94 13.83 16.6 12.13 16.6C10.14 16.6 9.16 15.85 8.79 14.39L6.73 14.39C7.02 16.28 8.23 17.97 10.82 18.4L10.82 20.53L12.84 20.53L12.84 18.48Z" fill="#191919" fill-opacity="1.000000" fill-rule="evenodd"/>
</svg>
