<svg width="24.000000" height="24.000000" viewBox="0 0 24 24" fill="none" xmlns="http://www.w3.org/2000/svg" xmlns:xlink="http://www.w3.org/1999/xlink">
	<desc>
			Created with Pixso.
	</desc>
	<defs>
		<clipPath id="clip58_456">
			<rect id="el:fire" rx="0.000000" width="23.000000" height="23.000000" transform="translate(0.500000 0.500000)" fill="white" fill-opacity="0"/>
		</clipPath>
	</defs>
	<rect id="el:fire" rx="0.000000" width="23.000000" height="23.000000" transform="translate(0.500000 0.500000)" fill="#FFFFFF" fill-opacity="0"/>
	<g clip-path="url(#clip58_456)">
		<path id="Vector" d="M7.63 24C2.71 21.22 1.42 18.6 2.16 15.02C2.7 12.37 4.49 10.22 4.66 7.58C5.43 8.97 5.75 9.97 5.83 11.43C8.26 8.45 9.87 4.33 9.96 0C9.96 0 16.3 3.72 16.71 9.33C17.26 8.18 17.53 6.34 16.99 5.14C18.62 6.34 28.19 16.92 15.69 24C18.04 19.42 16.3 13.24 12.21 10.39C12.49 11.62 12.01 16.19 10.2 18.2C10.7 14.84 9.73 13.42 9.73 13.42C9.73 13.42 9.39 15.3 8.09 17.2C6.91 18.94 6.08 20.78 7.63 24Z" fill="#434343" fill-opacity="1.000000" fill-rule="nonzero"/>
	</g>
</svg>
