<svg width="17.000000" height="20.000000" viewBox="0 0 17 20" fill="none" xmlns="http://www.w3.org/2000/svg" xmlns:xlink="http://www.w3.org/1999/xlink">
	<desc>
			Created with Pixso.
	</desc>
	<defs/>
	<path id="Vector" d="M2.66 9L0.14 8.96C0.14 8.96 -0.07 7.56 0.02 5.32C0.18 1.51 0.58 0.31 0.58 0.31L2.66 0.31L2.66 9Z" fill="#434343" fill-opacity="1.000000" fill-rule="nonzero"/>
	<path id="Vector" d="M2.65 8.77C2.65 8.77 2.57 6.23 4.57 6.36C6.18 6.46 8.97 7.31 11.14 6.61C11.14 6.61 6.96 9.91 5.26 14.96C4.46 17.34 4.81 20 4.81 20L12.15 20C12.15 20 10.52 10.3 17 2.15L15.25 1.01C15.25 1.01 14.16 1.49 12.21 1.23C9.68 0.9 6.66 -1.49 2.65 1.42L2.65 8.77Z" fill="#434343" fill-opacity="1.000000" fill-rule="nonzero"/>
</svg>
