<svg width="24.000000" height="24.000000" viewBox="0 0 24 24" fill="none" xmlns="http://www.w3.org/2000/svg" xmlns:xlink="http://www.w3.org/1999/xlink">
	<defs>
		<clipPath id="clip407_12219">
			<rect id="fluent:people-team-48-filled" rx="0.000000" width="23.000000" height="23.000000" transform="translate(0.500000 0.500000)" fill="white" fill-opacity="0"/>
		</clipPath>
	</defs>
	<rect id="fluent:people-team-48-filled" rx="0.000000" width="23.000000" height="23.000000" transform="translate(0.500000 0.500000)" fill="#FFFFFF" fill-opacity="0"/>
	<g clip-path="url(#clip407_12219)">
		<path id="Vector" d="M9 5.5C9 4.7 9.31 3.94 9.87 3.37C10.44 2.81 11.2 2.5 12 2.5C12.79 2.5 13.55 2.81 14.12 3.37C14.68 3.94 15 4.7 15 5.5C15 6.29 14.68 7.05 14.12 7.62C13.55 8.18 12.79 8.5 12 8.5C11.2 8.5 10.44 8.18 9.87 7.62C9.31 7.05 9 6.29 9 5.5ZM18.5 3.5C17.83 3.5 17.2 3.76 16.73 4.23C16.26 4.7 16 5.33 16 6C16 6.66 16.26 7.29 16.73 7.76C17.2 8.23 17.83 8.5 18.5 8.5C19.16 8.5 19.79 8.23 20.26 7.76C20.73 7.29 21 6.66 21 6C21 5.33 20.73 4.7 20.26 4.23C19.79 3.76 19.16 3.5 18.5 3.5ZM5.5 3.5C4.83 3.5 4.2 3.76 3.73 4.23C3.26 4.7 3 5.33 3 6C3 6.66 3.26 7.29 3.73 7.76C4.2 8.23 4.83 8.5 5.5 8.5C6.16 8.5 6.79 8.23 7.26 7.76C7.73 7.29 8 6.66 8 6C8 5.33 7.73 4.7 7.26 4.23C6.79 3.76 6.16 3.5 5.5 3.5ZM9.62 9.5C9.06 9.5 8.52 9.72 8.12 10.12C7.72 10.52 7.5 11.06 7.5 11.62L7.5 17C7.5 18.19 7.97 19.33 8.81 20.18C9.66 21.02 10.8 21.5 12 21.5C13.19 21.5 14.33 21.02 15.18 20.18C16.02 19.33 16.5 18.19 16.5 17L16.5 11.62C16.5 11.06 16.27 10.52 15.87 10.12C15.47 9.72 14.93 9.5 14.37 9.5L9.62 9.5ZM6.5 11.62C6.5 10.82 6.8 10.09 7.29 9.54C7.15 9.51 7.01 9.49 6.87 9.5L4.12 9.5C3.56 9.5 3.02 9.72 2.62 10.12C2.22 10.52 2 11.06 2 11.62L2 16.5C1.99 17.1 2.15 17.69 2.45 18.22C2.75 18.75 3.18 19.19 3.69 19.5C4.21 19.81 4.8 19.98 5.41 19.99C6.01 20.01 6.61 19.87 7.14 19.58C6.72 18.79 6.49 17.9 6.5 17L6.5 11.62ZM17.5 17C17.5 17.93 17.26 18.81 16.85 19.58C17.38 19.87 17.98 20.01 18.58 19.99C19.19 19.98 19.78 19.81 20.3 19.5C20.81 19.19 21.24 18.75 21.54 18.22C21.84 17.69 22 17.1 22 16.5L22 11.62C22 11.06 21.77 10.52 21.37 10.12C20.97 9.72 20.43 9.5 19.87 9.5L17.12 9.5C16.98 9.5 16.84 9.51 16.7 9.54C17.21 10.11 17.5 10.85 17.5 11.62L17.5 17Z" fill="#323232" fill-opacity="1.000000" fill-rule="nonzero"/>
	</g>
</svg>
