<svg width="25.000000" height="25.000000" viewBox="0 0 25 25" fill="none" xmlns="http://www.w3.org/2000/svg" xmlns:xlink="http://www.w3.org/1999/xlink">
	<path id="Vector" d="M25 12.5C25 19.4 19.4 25 12.5 25C5.59 25 0 19.4 0 12.5C0 5.59 5.59 0 12.5 0C19.4 0 25 5.59 25 12.5Z" fill="#EF0027" fill-opacity="1.000000" fill-rule="evenodd"/>
	<path id="Vector" d="M17.13 7.74L5.85 5.66L11.79 20.6L20.06 10.52L17.13 7.74ZM16.95 8.65L18.67 10.29L13.96 11.15L16.95 8.65ZM12.93 10.98L7.96 6.85L16.09 8.35L12.93 10.98ZM12.58 11.71L11.77 18.41L7.39 7.41L12.58 11.71ZM13.33 12.06L18.55 11.12L12.56 18.41L13.33 12.06Z" fill="#FFFFFF" fill-opacity="1.000000" fill-rule="nonzero"/>
</svg>
