<svg width="20.000000" height="16.000000" viewBox="0 0 20 16" fill="none" xmlns="http://www.w3.org/2000/svg" xmlns:xlink="http://www.w3.org/1999/xlink">
	<desc>
			Created with Pixso.
	</desc>
	<defs/>
	<path id="Vector" d="M16 0L4 0C1.79 0 0 1.79 0 4L0 12C0 14.21 1.79 16 4 16L16 16C18.2 16 20 14.21 20 12L20 4C20 1.79 18.2 0 16 0ZM14.13 9.77C13.89 9.97 13.57 10.04 13.26 9.97L2.14 7.25C2.44 6.52 3.15 6 4 6L16 6C16.66 6 17.26 6.33 17.62 6.83L14.13 9.77ZM4 2L16 2C17.1 2 18 2.89 18 4L18 4.54C17.4 4.2 16.73 4 16 4L4 4C3.27 4 2.59 4.2 2 4.54L2 4C2 2.89 2.89 2 4 2Z" fill="#FFFFFF" fill-opacity="1.000000" fill-rule="nonzero"/>
</svg>
